<?xml version="1.0" encoding="utf-8"?>
<!-- Generator: Adobe Illustrator 16.0.0, SVG Export Plug-In . SVG Version: 6.00 Build 0)  -->
<!DOCTYPE svg PUBLIC "-//W3C//DTD SVG 1.1//EN" "http://www.w3.org/Graphics/SVG/1.1/DTD/svg11.dtd">
<svg version="1.1" id="Capa_1" xmlns="http://www.w3.org/2000/svg" xmlns:xlink="http://www.w3.org/1999/xlink" x="0px" y="0px"
	 width="81.156px" height="94.395px" viewBox="0 0 81.156 94.395" enable-background="new 0 0 81.156 94.395" xml:space="preserve">
<path fill="#ACC34F" d="M81.156,94.394L69.177,85.94c-9.036-6.159-14.055-6.841-23.161-8.076c-4.455-0.606-9.504-1.292-16.012-2.72
	C10.573,70.876,0.854,52.842,0.046,37.891c-0.499-9.25,3.064-18.854,9.533-25.686C15.011,6.466,25.443-0.427,43.493,0.02
	c27.399,0.644,37.61,18.592,37.61,30.597l0.051,2.506v61.271H81.156z"/>
<path fill="#FFFFFF" d="M73.248,79.48V32.794c0,0,0.082-1.683-0.15-3.529c-0.791-6.326-7.467-20.909-29.787-21.431
	C15.655,7.185,7.195,25.422,7.844,37.469c0.65,12.049,8.269,26.622,23.834,30.041C51.691,71.906,57.954,69.058,73.248,79.48z"/>
<path display="none" fill="#ACC34F" d="M73.248,79.48V32.794c0,0,0.082-1.683-0.15-3.528c-0.791-6.326-7.468-20.91-29.787-21.433
	C15.654,7.186,7.194,25.422,7.844,37.469c0.65,12.05,8.269,26.622,23.834,30.041C51.691,71.906,57.954,69.059,73.248,79.48z"/>
<path fill="#ACC34F" d="M25.411,17.727c-6.815,0-9.12,6.309-9.12,12.902c0,6.523,2.336,12.868,9.12,12.868
	c3.04,0,5.792-1.426,7.391-4.384c1.248-2.354,1.728-5.988,1.728-8.697C34.53,23.929,32.066,17.727,25.411,17.727z"/>
<path fill="#FFFFFF" d="M25.411,22.788c1.472,0,3.583,1.497,3.583,7.842c0,5.811-1.888,7.843-3.583,7.843
	c-1.792,0-3.584-2.032-3.584-7.843C21.827,24.677,23.683,22.824,25.411,22.788z"/>
<path fill="#ACC34F" d="M37.917,30.594c-1.6,0-2.496,0.57-2.496,2.46c0,1.889,0.896,2.459,2.496,2.459h5.888
	c1.6,0,2.495-0.57,2.495-2.459c0-1.89-0.896-2.46-2.495-2.46H37.917z"/>
<path fill="#ACC34F" d="M54.137,28.955c-3.615,1.675-7.264,4.242-7.264,9.054c0,2.674,1.376,5.489,4.031,5.489
	c1.408,0,2.752-0.962,2.752-2.602c-0.032-0.962,0.064-1.069,0.353-1.069c0.607,0,1.407,0.891,2.433,1.818
	c1.022,0.927,2.367,1.854,4.031,1.854c2.976,0,5.119-3.278,5.119-6.416c0-2.21-1.119-4.526-3.296-4.526
	c-1.344,0-2.528,1.176-2.528,2.709c0,1.318,0.832,2.28,1.984,2.424c-0.288,0.285-0.607,0.569-0.992,0.569
	c-0.832,0-1.6-0.749-2.496-1.496c-0.928-0.749-1.951-1.497-3.295-1.497c-1.345,0-2.527,0.749-3.199,1.995l-0.064-0.07
	c0.16-2.424,3.04-3.172,4.8-3.814c3.681-1.283,8-3.101,8-8.198c0-5.347-4.128-7.449-8.353-7.449c-3.774,0-8.606,1.781-8.606,6.844
	c0,2.067,1.312,3.885,3.265,3.885c1.728,0,3.264-1.283,3.264-3.351c0-0.749-0.225-1.283-0.641-1.854
	c0.705-0.569,1.504-0.713,2.367-0.713c1.217,0,2.752,0.749,2.752,2.354C58.552,27.244,55.77,28.206,54.137,28.955z"/>
<path fill="#ACC34F" d="M30.098,55.119h0.38c0.259,0,0.432,0,0.536,0.172c0.086,0.14,0.155,0.468,0.19,0.642
	c0.017,0.104,0.052,0.189,0.052,0.312c0,0.243-0.155,0.364-0.397,0.364c-0.138,0-0.242-0.019-0.329-0.019
	c-0.484,0-0.847,0.433-0.847,1.177c0,0.641,0.484,1.125,1.158,1.125c0.744,0,1.487-0.174,2.248-0.174
	c0.778,0,1.314,0.174,2.058,0.174c0.691,0,1.175-0.521,1.175-1.211c0-0.936-0.432-1.265-0.847-1.265
	c-0.155,0-0.328,0.035-0.519,0.035c-0.346,0-0.449-0.381-0.674-1.107l-2.109-7.076c-0.225-0.796-0.294-1.004-0.744-1.246
	c-0.363-0.19-1.054-0.19-1.867-0.19c-1.884,0-2.074,0.14-2.714,1.887l-2.369,6.507c-0.138,0.397-0.329,1.229-0.864,1.229
	c-0.208,0-0.398-0.035-0.588-0.035c-0.415,0-0.847,0.381-0.847,1.265c0,0.69,0.484,1.211,1.158,1.211
	c0.744,0,1.487-0.173,2.248-0.173c0.778,0,1.314,0.173,2.057,0.173c0.674,0,1.159-0.484,1.159-1.125
	c0-0.916-0.484-1.177-0.847-1.177c-0.086,0-0.156-0.018-0.294-0.018c-0.225,0-0.346-0.104-0.346-0.329
	c0-0.189,0.138-0.761,0.242-0.917c0.104-0.139,0.208-0.225,0.951-0.207h1.59V55.119z"/>
<path fill="#FFFFFF" d="M29.51,48.959h0.035l0.709,3.201c0.035,0.121,0.086,0.346,0.086,0.467c0,0.173-0.139,0.242-0.761,0.242
	h-0.467c-0.45,0-0.657-0.086-0.657-0.225c0-0.069,0.035-0.121,0.052-0.19L29.51,48.959z"/>
<path fill="#ACC34F" d="M42.428,55.621c0,0.969-0.018,1.211-0.225,1.211c-0.053,0-0.121-0.035-0.189-0.068
	c-0.053-0.019-0.121-0.053-0.209-0.053c-0.24,0-0.535,0.207-0.535,0.986c0,0.899,0.312,1.193,0.691,1.193
	c0.622,0,1.003-0.174,1.659-0.174c0.709,0,1.399,0.174,2.144,0.174c0.728,0,1.021-0.536,1.021-1.193
	c0-0.521-0.189-0.986-0.762-0.986c-0.104,0-0.207,0.019-0.312,0.053c-0.086,0.033-0.173,0.068-0.259,0.068
	c-0.208,0-0.313-0.174-0.313-1.211v-2.925c0-2.007-1.418-3.098-2.938-3.098c-1.246,0-2.265,0.656-3.009,1.593H39.16v-0.435
	c0-0.69,0-0.898-0.484-0.898c-0.432,0-0.744,0.173-1.228,0.173c-0.588,0-1.02-0.173-1.417-0.173c-0.38,0-0.674,0.536-0.674,1.193
	c0,0.52,0.19,0.986,0.761,0.986c0.225,0,0.397-0.121,0.57-0.121c0.225,0,0.311,0.226,0.311,1.211v2.492
	c0,1.021-0.069,1.211-0.311,1.211c-0.086,0-0.173-0.053-0.259-0.068c-0.104-0.019-0.19-0.053-0.311-0.053
	c-0.571,0-0.761,0.467-0.761,0.986c0,0.657,0.294,1.193,0.726,1.193c0.588,0,1.245-0.174,1.902-0.174c0.708,0,1.4,0.174,2.195,0.174
	c0.484,0,0.691-0.536,0.691-1.193c0-0.728-0.242-0.986-0.501-0.986c-0.121,0-0.19,0.019-0.259,0.053
	c-0.069,0.033-0.121,0.068-0.19,0.068c-0.138,0-0.208-0.208-0.208-1.211v-1.662c0-1.557,1.072-1.938,1.643-1.92
	c0.676,0.019,1.072,0.449,1.072,1.418V55.621z"/>
<path fill="#ACC34F" d="M42.912,46.259c-0.275,0.19-0.432,0.329-0.777,0.329c-0.381,0-0.813-0.173-1.263-0.362
	c-0.449-0.174-0.933-0.347-1.417-0.347c-0.605,0-1.314,0.243-1.746,0.658c-0.311,0.294-0.588,0.779-0.588,1.229
	c0,0.502,0.329,0.951,0.847,0.951c0.311,0,0.588-0.226,0.813-0.397c0.225-0.139,0.415-0.294,0.692-0.294
	c0.536,0,1.486,0.71,2.49,0.71c1.037,0,2.455-0.693,2.455-1.887c0-0.468-0.277-0.883-0.777-0.883
	C43.292,45.965,43.189,46.086,42.912,46.259z"/>
<path fill="#ACC34F" d="M50.852,49.599c-2.992,0-4.6,1.816-4.6,4.759c0,2.959,1.607,4.758,4.615,4.758
	c3.025,0,4.479-1.989,4.479-4.861C55.346,51.468,53.686,49.599,50.852,49.599z"/>
<path fill="#FFFFFF" d="M50.799,51.779c0.934,0,1.694,0.57,1.694,2.578c0,0.588-0.121,1.298-0.382,1.834
	c-0.275,0.571-0.795,0.744-1.399,0.744c-0.709,0-1.606-0.571-1.606-2.578C49.105,52.42,49.986,51.779,50.799,51.779z"/>
<path fill="#ACC34F" d="M55.919,52.609c0,2.231,1.659,2.525,3.44,2.82c1.141,0.19,1.556,0.362,1.556,0.883
	c0,0.346-0.312,0.778-1.228,0.778c-0.434,0-0.864-0.104-1.263-0.295c-0.329-0.154-0.521-0.467-0.727-0.762
	c-0.347-0.501-0.605-0.709-1.245-0.709c-0.482,0-1.037,0.242-1.037,0.796c0,0.347,0.087,0.675,0.087,1.021
	c0,0.362-0.087,0.692-0.087,1.039c0,0.641,0.467,0.777,1.003,0.777s0.899-0.312,0.864-0.848c0.777,0.675,1.814,1.003,2.835,1.003
	c1.815,0,3.647-1.142,3.647-3.097c0-2.146-1.556-2.491-3.302-2.821l-0.743-0.138c-0.883-0.155-1.09-0.382-1.09-0.762
	c0-0.434,0.313-0.71,0.951-0.71c1.659,0,1.191,1.487,2.68,1.487c0.727,0,1.002-0.38,1.002-0.727c0-0.363-0.119-0.605-0.119-1.021
	c0-0.38,0.119-0.727,0.119-1.038c0-0.537-0.449-0.623-0.863-0.623c-0.553,0-0.95,0.14-0.985,0.744
	c-0.569-0.554-1.485-0.813-2.265-0.813C57.32,49.599,55.919,50.724,55.919,52.609z"/>
</svg>
