<?xml version="1.0" encoding="utf-8"?>
<!-- Generator: Adobe Illustrator 16.0.0, SVG Export Plug-In . SVG Version: 6.00 Build 0)  -->
<!DOCTYPE svg PUBLIC "-//W3C//DTD SVG 1.1//EN" "http://www.w3.org/Graphics/SVG/1.1/DTD/svg11.dtd">
<svg version="1.1" id="Capa_1" xmlns="http://www.w3.org/2000/svg" xmlns:xlink="http://www.w3.org/1999/xlink" x="0px" y="0px"
	 width="81.156px" height="94.394px" viewBox="0 0 81.156 94.394" enable-background="new 0 0 81.156 94.394" xml:space="preserve">
<g>
	<path fill="#D68500" d="M81.199,33.125l-0.05-2.506c0-12.006-10.22-29.953-37.633-30.598C25.457-0.426,15.02,6.468,9.585,12.208
		C3.112,19.039-0.454,28.641,0.046,37.892C0.854,52.841,10.578,70.876,30.02,75.144c6.51,1.429,11.562,2.114,16.018,2.72
		c9.114,1.236,14.132,1.917,23.174,8.077l11.987,8.453V33.125z"/>
	<path fill="#FFFFFF" d="M73.284,79.479V32.795c0,0,0.083-1.683-0.148-3.529c-0.792-6.327-7.473-20.909-29.802-21.432
		C15.662,7.187,7.198,25.422,7.848,37.469c0.65,12.049,8.271,26.622,23.846,30.041C51.717,71.905,57.983,69.057,73.284,79.479z"/>
	<g>
		<path fill="#D68500" d="M27.867,23.89c0-1.604-1.537-2.353-2.753-2.353c-0.864,0-1.665,0.143-2.369,0.713
			c0.416,0.57,0.64,1.105,0.64,1.854c0,2.067-1.537,3.351-3.265,3.351c-1.953,0-3.266-1.818-3.266-3.885
			c0-5.062,4.834-6.844,8.611-6.844c4.226,0,8.355,2.103,8.355,7.45c0,5.097-4.322,6.915-8.003,8.198
			c-1.761,0.642-4.642,1.39-4.802,3.814l0.064,0.071c0.672-1.248,1.857-1.996,3.202-1.996c1.344,0,2.369,0.749,3.297,1.497
			c0.896,0.749,1.665,1.497,2.497,1.497c0.384,0,0.704-0.285,0.992-0.57c-1.152-0.143-1.985-1.105-1.985-2.424
			c0-1.533,1.185-2.709,2.529-2.709c2.177,0,3.297,2.317,3.297,4.527c0,3.137-2.145,6.416-5.122,6.416
			c-1.665,0-3.009-0.927-4.033-1.854s-1.825-1.818-2.433-1.818c-0.288,0-0.384,0.107-0.352,1.069c0,1.64-1.345,2.602-2.753,2.602
			c-2.657,0-4.034-2.816-4.034-5.489c0-4.812,3.65-7.378,7.267-9.054C25.082,27.205,27.867,26.242,27.867,23.89z"/>
		<path fill="#D68500" d="M43.838,29.593c1.601,0,2.497,0.57,2.497,2.459s-0.896,2.459-2.497,2.459h-5.89
			c-1.601,0-2.497-0.57-2.497-2.459s0.896-2.459,2.497-2.459H43.838z"/>
		<path fill="#D68500" d="M48.671,18.899c0.096-1.105,0.352-1.675,1.857-1.675h11.685c0.896,0,1.729,0.143,1.729,1.354
			c0,0.57-0.096,1.105-0.096,1.675s0.096,1.105,0.096,1.675c0,2.388-1.057,3.351-2.433,3.351c-1.152,0-1.793-0.713-2.145-1.925
			c-0.064-0.214-0.16-0.642-0.416-0.749c-0.416-0.178-0.896-0.143-1.345-0.143h-3.361c-0.448,0-0.672,0.036-0.768,0.82l-0.288,2.994
			c1.313-0.428,2.657-0.749,4.033-0.749c4.13,0,7.651,3.137,7.651,7.913c0,5.988-4.706,9.054-9.604,9.054
			c-1.729,0-3.681-0.463-5.186-1.39c-1.633-0.998-3.009-2.745-3.009-4.883c0-2.21,1.281-3.957,3.33-3.957
			c1.632,0,3.041,1.069,3.041,2.994c0,0.713-0.224,1.141-0.576,1.711c0.8,0.57,1.537,0.749,2.529,0.749
			c1.857,0,3.874-1.176,3.874-3.493c0-2.531-2.208-3.707-4.226-3.707c-1.537,0-2.977,0.784-4.226,0.784
			c-1.857,0-3.009-1.889-2.913-3.172L48.671,18.899z"/>
	</g>
	<g>
		<path fill="#D68500" d="M28.53,55.117c-0.744-0.017-0.848,0.069-0.952,0.208c-0.104,0.156-0.242,0.727-0.242,0.917
			c0,0.225,0.121,0.329,0.346,0.329c0.139,0,0.208,0.017,0.294,0.017c0.363,0,0.848,0.26,0.848,1.177
			c0,0.64-0.484,1.125-1.159,1.125c-0.744,0-1.28-0.173-2.059-0.173c-0.761,0-1.505,0.173-2.25,0.173
			c-0.675,0-1.159-0.519-1.159-1.211c0-0.883,0.433-1.263,0.848-1.263c0.19,0,0.381,0.035,0.588,0.035
			c0.537,0,0.727-0.831,0.865-1.229l2.371-6.506c0.64-1.748,0.831-1.886,2.717-1.886c0.813,0,1.505,0,1.869,0.19
			c0.45,0.242,0.519,0.45,0.744,1.246l2.111,7.077c0.225,0.727,0.329,1.107,0.675,1.107c0.19,0,0.363-0.035,0.519-0.035
			c0.416,0,0.848,0.329,0.848,1.263c0,0.692-0.485,1.211-1.177,1.211c-0.744,0-1.28-0.173-2.059-0.173
			c-0.761,0-1.505,0.173-2.25,0.173c-0.675,0-1.159-0.484-1.159-1.125c0-0.744,0.363-1.177,0.848-1.177
			c0.086,0,0.19,0.018,0.329,0.018c0.243,0,0.398-0.121,0.398-0.364c0-0.121-0.035-0.208-0.052-0.311
			c-0.035-0.173-0.104-0.502-0.19-0.641c-0.104-0.173-0.277-0.173-0.536-0.173h-0.381H28.53z M28.53,52.453
			c-0.017,0.069-0.052,0.121-0.052,0.19c0,0.139,0.208,0.225,0.657,0.225h0.467c0.623,0,0.761-0.069,0.761-0.242
			c0-0.121-0.052-0.346-0.086-0.467l-0.709-3.201h-0.035L28.53,52.453z"/>
		<path fill="#D68500" d="M42.46,53.456c0-0.969-0.398-1.401-1.073-1.419c-0.571-0.017-1.644,0.363-1.644,1.921v1.661
			c0,1.003,0.069,1.211,0.208,1.211c0.069,0,0.121-0.035,0.19-0.069c0.069-0.035,0.139-0.052,0.26-0.052
			c0.26,0,0.502,0.26,0.502,0.986c0,0.658-0.208,1.194-0.692,1.194c-0.796,0-1.488-0.173-2.197-0.173
			c-0.658,0-1.315,0.173-1.904,0.173c-0.432,0-0.727-0.536-0.727-1.194c0-0.519,0.19-0.986,0.761-0.986
			c0.121,0,0.208,0.035,0.312,0.052c0.086,0.017,0.173,0.069,0.26,0.069c0.242,0,0.312-0.19,0.312-1.211v-2.492
			c0-0.986-0.087-1.211-0.312-1.211c-0.173,0-0.346,0.121-0.571,0.121c-0.571,0-0.761-0.467-0.761-0.986
			c0-0.657,0.294-1.194,0.675-1.194c0.398,0,0.831,0.173,1.419,0.173c0.484,0,0.796-0.173,1.229-0.173
			c0.484,0,0.484,0.208,0.484,0.9v0.433h0.035c0.744-0.935,1.765-1.592,3.011-1.592c1.523,0,2.942,1.09,2.942,3.098v2.924
			c0,1.038,0.104,1.211,0.312,1.211c0.086,0,0.173-0.035,0.259-0.069c0.104-0.035,0.208-0.052,0.312-0.052
			c0.571,0,0.761,0.467,0.761,0.986c0,0.658-0.294,1.194-1.021,1.194c-0.744,0-1.436-0.173-2.146-0.173
			c-0.657,0-1.038,0.173-1.661,0.173c-0.38,0-0.692-0.294-0.692-1.194c0-0.778,0.294-0.986,0.536-0.986
			c0.086,0,0.156,0.035,0.208,0.052c0.069,0.034,0.139,0.069,0.19,0.069c0.208,0,0.225-0.242,0.225-1.211V53.456z M43.671,45.964
			c0.501,0,0.778,0.415,0.778,0.882c0,1.194-1.419,1.886-2.457,1.886c-1.003,0-1.955-0.709-2.492-0.709
			c-0.277,0-0.467,0.156-0.692,0.294c-0.225,0.173-0.502,0.398-0.813,0.398c-0.519,0-0.848-0.45-0.848-0.952
			c0-0.45,0.277-0.935,0.588-1.229c0.432-0.416,1.142-0.658,1.748-0.658c0.484,0,0.969,0.173,1.419,0.346
			c0.45,0.19,0.882,0.363,1.263,0.363c0.346,0,0.501-0.138,0.778-0.329C43.221,46.085,43.325,45.964,43.671,45.964z"/>
		<path fill="#D68500" d="M55.386,54.252c0,2.873-1.454,4.862-4.481,4.862c-3.011,0-4.62-1.799-4.62-4.758
			c0-2.942,1.609-4.759,4.603-4.759C53.725,49.597,55.386,51.466,55.386,54.252z M49.139,54.356c0,2.007,0.9,2.578,1.609,2.578
			c0.605,0,1.125-0.173,1.401-0.744c0.26-0.536,0.381-1.246,0.381-1.834c0-2.007-0.762-2.578-1.696-2.578
			C50.021,51.778,49.139,52.418,49.139,54.356z"/>
		<path fill="#D68500" d="M59.192,49.597c0.779,0,1.696,0.26,2.267,0.813c0.034-0.605,0.433-0.744,0.986-0.744
			c0.415,0,0.865,0.086,0.865,0.623c0,0.312-0.121,0.658-0.121,1.038c0,0.416,0.121,0.658,0.121,1.021
			c0,0.346-0.277,0.727-1.003,0.727c-1.488,0-1.021-1.488-2.682-1.488c-0.64,0-0.952,0.277-0.952,0.709
			c0,0.38,0.208,0.605,1.09,0.761l0.744,0.138c1.748,0.329,3.305,0.675,3.305,2.821c0,1.955-1.834,3.097-3.651,3.097
			c-1.021,0-2.059-0.329-2.838-1.003c0.035,0.536-0.329,0.848-0.865,0.848c-0.536,0-1.003-0.138-1.003-0.779
			c0-0.346,0.086-0.675,0.086-1.038c0-0.346-0.086-0.675-0.086-1.021c0-0.554,0.554-0.796,1.038-0.796c0.64,0,0.9,0.208,1.246,0.709
			c0.208,0.294,0.398,0.605,0.727,0.761c0.398,0.19,0.831,0.294,1.263,0.294c0.917,0,1.229-0.433,1.229-0.779
			c0-0.519-0.416-0.692-1.557-0.882c-1.783-0.294-3.444-0.588-3.444-2.82C55.957,50.722,57.358,49.597,59.192,49.597z"/>
	</g>
</g>
<g>
</g>
<g>
</g>
<g>
</g>
<g>
</g>
<g>
</g>
<g>
</g>
</svg>
