<?xml version="1.0" encoding="utf-8"?>
<!-- Generator: Adobe Illustrator 16.0.0, SVG Export Plug-In . SVG Version: 6.00 Build 0)  -->
<!DOCTYPE svg PUBLIC "-//W3C//DTD SVG 1.1//EN" "http://www.w3.org/Graphics/SVG/1.1/DTD/svg11.dtd">
<svg version="1.1" id="Capa_1" xmlns="http://www.w3.org/2000/svg" xmlns:xlink="http://www.w3.org/1999/xlink" x="0px" y="0px"
	 width="81.156px" height="94.394px" viewBox="0 0 81.156 94.394" enable-background="new 0 0 81.156 94.394" xml:space="preserve">
<g>
	<path fill="#E2A900" d="M81.156,33.124l-0.05-2.506c0-12.005-10.212-29.953-37.612-30.597C25.444-0.426,15.012,6.466,9.58,12.207
		C3.111,19.038-0.452,28.641,0.047,37.891c0.808,14.95,10.527,32.985,29.958,37.254c6.507,1.428,11.557,2.113,16.011,2.719
		c9.108,1.235,14.125,1.917,23.162,8.076l11.979,8.453V33.124z"/>
	<path fill="#FFFFFF" d="M73.248,79.48V32.794c0,0,0.082-1.683-0.149-3.529C72.307,22.939,65.63,8.355,43.311,7.833
		C15.655,7.186,7.195,25.422,7.844,37.469c0.65,12.049,8.269,26.622,23.834,30.041C51.691,71.906,57.954,69.058,73.248,79.48z"/>
	<g>
		<path fill="#E2A900" d="M37.855,23.891c0-1.604-1.536-2.353-2.752-2.353c-0.864,0-1.664,0.143-2.368,0.713
			c0.416,0.57,0.64,1.105,0.64,1.854c0,2.067-1.536,3.351-3.264,3.351c-1.952,0-3.264-1.818-3.264-3.885
			c0-5.062,4.832-6.844,8.607-6.844c4.224,0,8.352,2.103,8.352,7.45c0,5.097-4.32,6.915-8,8.198c-1.76,0.642-4.64,1.39-4.8,3.814
			l0.064,0.071c0.672-1.248,1.856-1.996,3.2-1.996c1.344,0,2.368,0.749,3.295,1.497c0.896,0.749,1.664,1.497,2.496,1.497
			c0.384,0,0.704-0.285,0.992-0.57c-1.152-0.143-1.984-1.105-1.984-2.424c0-1.533,1.184-2.709,2.528-2.709
			c2.176,0,3.296,2.317,3.296,4.527c0,3.137-2.144,6.416-5.12,6.416c-1.664,0-3.008-0.927-4.032-1.854s-1.824-1.818-2.432-1.818
			c-0.288,0-0.384,0.107-0.352,1.069c0,1.64-1.344,2.602-2.752,2.602c-2.656,0-4.032-2.816-4.032-5.489
			c0-4.812,3.648-7.378,7.264-9.054C35.072,27.206,37.855,26.244,37.855,23.891z"/>
		<path fill="#E2A900" d="M53.313,23.178h3.712v6.808h6.208v4.135h-6.208v7.058h-3.712v-7.058h-6.208v-4.135h6.208V23.178z"/>
	</g>
	<g>
		<path fill="#E2A900" d="M29.514,55.119c-0.744-0.017-0.847,0.069-0.951,0.208c-0.104,0.156-0.242,0.727-0.242,0.917
			c0,0.225,0.121,0.329,0.346,0.329c0.138,0,0.208,0.017,0.294,0.017c0.363,0,0.847,0.26,0.847,1.177
			c0,0.64-0.484,1.125-1.159,1.125c-0.743,0-1.279-0.173-2.057-0.173c-0.761,0-1.504,0.173-2.248,0.173
			c-0.674,0-1.158-0.519-1.158-1.211c0-0.883,0.432-1.263,0.847-1.263c0.19,0,0.38,0.035,0.588,0.035
			c0.536,0,0.726-0.831,0.864-1.229l2.369-6.506c0.64-1.748,0.83-1.886,2.714-1.886c0.813,0,1.504,0,1.867,0.19
			c0.45,0.242,0.519,0.45,0.744,1.246l2.109,7.077c0.225,0.727,0.329,1.107,0.674,1.107c0.19,0,0.363-0.035,0.519-0.035
			c0.415,0,0.847,0.329,0.847,1.263c0,0.692-0.484,1.211-1.175,1.211c-0.744,0-1.279-0.173-2.058-0.173
			c-0.761,0-1.504,0.173-2.247,0.173c-0.674,0-1.159-0.484-1.159-1.125c0-0.744,0.363-1.177,0.847-1.177
			c0.086,0,0.19,0.018,0.329,0.018c0.242,0,0.397-0.121,0.397-0.364c0-0.121-0.035-0.208-0.052-0.311
			c-0.035-0.173-0.104-0.502-0.19-0.641c-0.104-0.173-0.277-0.173-0.536-0.173h-0.38H29.514z M29.514,52.454
			c-0.018,0.069-0.052,0.121-0.052,0.19c0,0.139,0.208,0.225,0.657,0.225h0.467c0.622,0,0.761-0.069,0.761-0.242
			c0-0.121-0.052-0.346-0.086-0.467l-0.709-3.201h-0.035L29.514,52.454z"/>
		<path fill="#E2A900" d="M43.435,53.458c0-0.969-0.397-1.401-1.072-1.419c-0.571-0.017-1.643,0.363-1.643,1.921v1.661
			c0,1.003,0.069,1.211,0.208,1.211c0.069,0,0.121-0.035,0.19-0.069c0.069-0.035,0.138-0.052,0.259-0.052
			c0.259,0,0.501,0.26,0.501,0.986c0,0.658-0.207,1.194-0.691,1.194c-0.795,0-1.487-0.173-2.195-0.173
			c-0.657,0-1.314,0.173-1.902,0.173c-0.432,0-0.726-0.536-0.726-1.194c0-0.519,0.19-0.986,0.761-0.986
			c0.121,0,0.208,0.035,0.311,0.052c0.086,0.017,0.173,0.069,0.259,0.069c0.242,0,0.311-0.19,0.311-1.211v-2.492
			c0-0.986-0.086-1.211-0.311-1.211c-0.173,0-0.346,0.121-0.57,0.121c-0.571,0-0.761-0.467-0.761-0.986
			c0-0.657,0.294-1.194,0.674-1.194c0.397,0,0.83,0.173,1.417,0.173c0.484,0,0.795-0.173,1.228-0.173c0.484,0,0.484,0.208,0.484,0.9
			v0.433h0.035c0.743-0.935,1.763-1.592,3.008-1.592c1.521,0,2.939,1.09,2.939,3.098v2.924c0,1.038,0.104,1.211,0.311,1.211
			c0.086,0,0.173-0.035,0.259-0.069c0.104-0.035,0.208-0.052,0.312-0.052c0.57,0,0.76,0.467,0.76,0.986
			c0,0.658-0.294,1.194-1.02,1.194c-0.743,0-1.435-0.173-2.144-0.173c-0.657,0-1.037,0.173-1.66,0.173
			c-0.38,0-0.691-0.294-0.691-1.194c0-0.779,0.294-0.986,0.536-0.986c0.086,0,0.156,0.035,0.208,0.052
			c0.069,0.034,0.138,0.069,0.19,0.069c0.208,0,0.225-0.242,0.225-1.211V53.458z M44.645,45.965c0.501,0,0.778,0.415,0.778,0.882
			c0,1.194-1.418,1.886-2.455,1.886c-1.003,0-1.954-0.709-2.489-0.709c-0.277,0-0.467,0.156-0.692,0.294
			c-0.225,0.173-0.501,0.398-0.813,0.398c-0.519,0-0.847-0.45-0.847-0.952c0-0.45,0.277-0.935,0.588-1.229
			c0.432-0.415,1.141-0.658,1.746-0.658c0.484,0,0.968,0.173,1.417,0.346c0.45,0.19,0.882,0.363,1.262,0.363
			c0.346,0,0.501-0.138,0.778-0.329C44.195,46.086,44.299,45.965,44.645,45.965z"/>
		<path fill="#E2A900" d="M56.353,54.253c0,2.873-1.452,4.862-4.478,4.862c-3.008,0-4.616-1.799-4.616-4.758
			c0-2.942,1.608-4.759,4.599-4.759C54.693,49.599,56.353,51.468,56.353,54.253z M50.111,54.357c0,2.007,0.899,2.578,1.608,2.578
			c0.605,0,1.124-0.173,1.4-0.744c0.259-0.536,0.38-1.246,0.38-1.834c0-2.007-0.761-2.578-1.694-2.578
			C50.993,51.779,50.111,52.419,50.111,54.357z"/>
		<path fill="#E2A900" d="M60.159,49.599c0.778,0,1.694,0.26,2.265,0.813c0.035-0.605,0.432-0.744,0.985-0.744
			c0.415,0,0.864,0.086,0.864,0.623c0,0.312-0.121,0.658-0.121,1.038c0,0.416,0.121,0.658,0.121,1.021
			c0,0.346-0.276,0.727-1.002,0.727c-1.487,0-1.02-1.488-2.68-1.488c-0.64,0-0.951,0.277-0.951,0.709
			c0,0.38,0.207,0.605,1.089,0.761l0.744,0.138c1.746,0.329,3.302,0.675,3.302,2.821c0,1.955-1.833,3.097-3.648,3.097
			c-1.02,0-2.057-0.329-2.835-1.003c0.035,0.536-0.329,0.848-0.864,0.848c-0.536,0-1.003-0.138-1.003-0.779
			c0-0.346,0.086-0.675,0.086-1.038c0-0.346-0.086-0.675-0.086-1.021c0-0.554,0.553-0.796,1.037-0.796
			c0.64,0,0.899,0.208,1.245,0.709c0.207,0.294,0.397,0.606,0.726,0.761c0.397,0.19,0.83,0.294,1.262,0.294
			c0.917,0,1.228-0.433,1.228-0.779c0-0.519-0.415-0.692-1.556-0.882c-1.781-0.294-3.44-0.588-3.44-2.82
			C56.926,50.724,58.326,49.599,60.159,49.599z"/>
	</g>
</g>
<g>
</g>
<g>
</g>
<g>
</g>
<g>
</g>
<g>
</g>
<g>
</g>
</svg>
