<?xml version="1.0" encoding="utf-8"?>
<!-- Generator: Adobe Illustrator 16.0.0, SVG Export Plug-In . SVG Version: 6.00 Build 0)  -->
<!DOCTYPE svg PUBLIC "-//W3C//DTD SVG 1.1//EN" "http://www.w3.org/Graphics/SVG/1.1/DTD/svg11.dtd">
<svg version="1.1" id="Capa_1" xmlns="http://www.w3.org/2000/svg" xmlns:xlink="http://www.w3.org/1999/xlink" x="0px" y="0px"
	 width="81.156px" height="94.394px" viewBox="0 0 81.156 94.394" enable-background="new 0 0 81.156 94.394" xml:space="preserve">
<g>
	<path fill="#9A77AC" d="M81.148,33.124l-0.049-2.506c0-12.005-10.213-29.953-37.613-30.597c-18.049-0.447-28.48,6.446-33.91,12.186
		C3.109,19.038-0.453,28.641,0.046,37.891c0.806,14.95,10.522,32.985,29.951,37.254c6.507,1.428,11.557,2.113,16.01,2.719
		c9.109,1.235,14.125,1.917,23.162,8.076l11.979,8.453V33.124z"/>
	<path fill="#FFFFFF" d="M73.24,79.48V32.794c0,0,0.082-1.683-0.148-3.529C72.3,22.939,65.623,8.355,43.304,7.833
		C15.648,7.186,7.192,25.422,7.841,37.469c0.65,12.05,8.264,26.622,23.83,30.041C51.683,71.906,57.947,69.058,73.24,79.48z"/>
	<g>
		<path fill="#9A77AC" d="M28.703,18.901c0.096-1.105,0.353-1.675,1.856-1.675h11.679c0.896,0,1.728,0.143,1.728,1.354
			c0,0.57-0.096,1.105-0.096,1.675s0.096,1.105,0.096,1.675c0,2.388-1.056,3.351-2.432,3.351c-1.151,0-1.792-0.713-2.144-1.925
			c-0.064-0.214-0.16-0.642-0.416-0.749c-0.416-0.178-0.896-0.143-1.344-0.143h-3.36c-0.447,0-0.672,0.036-0.768,0.82l-0.288,2.994
			c1.313-0.428,2.656-0.749,4.032-0.749c4.127,0,7.647,3.137,7.647,7.913c0,5.988-4.704,9.054-9.6,9.054
			c-1.728,0-3.68-0.463-5.184-1.39c-1.632-0.998-3.008-2.745-3.008-4.883c0-2.21,1.28-3.957,3.328-3.957
			c1.632,0,3.039,1.069,3.039,2.994c0,0.713-0.224,1.141-0.576,1.711c0.801,0.57,1.536,0.749,2.528,0.749
			c1.855,0,3.872-1.176,3.872-3.493c0-2.531-2.208-3.707-4.224-3.707c-1.536,0-2.977,0.784-4.224,0.784
			c-1.856,0-3.008-1.889-2.912-3.172L28.703,18.901z"/>
		<path fill="#9A77AC" d="M53.081,23.178h3.711v6.808H63v4.135h-6.208v7.058h-3.711v-7.058h-6.208v-4.135h6.208V23.178z"/>
	</g>
	<g>
		<path fill="#9A77AC" d="M29.502,55.119c-0.743-0.017-0.848,0.069-0.951,0.208c-0.104,0.156-0.242,0.727-0.242,0.917
			c0,0.225,0.121,0.329,0.346,0.329c0.139,0,0.208,0.017,0.294,0.017c0.363,0,0.848,0.26,0.848,1.177
			c0,0.64-0.484,1.125-1.158,1.125c-0.744,0-1.279-0.173-2.058-0.173c-0.761,0-1.504,0.173-2.247,0.173
			c-0.675,0-1.159-0.519-1.159-1.211c0-0.883,0.433-1.263,0.848-1.263c0.19,0,0.38,0.035,0.588,0.035
			c0.536,0,0.726-0.831,0.864-1.229l2.368-6.506c0.64-1.748,0.83-1.886,2.715-1.886c0.813,0,1.504,0,1.867,0.19
			c0.449,0.242,0.519,0.45,0.743,1.246l2.109,7.077c0.225,0.727,0.328,1.107,0.674,1.107c0.19,0,0.363-0.035,0.519-0.035
			c0.415,0,0.848,0.329,0.848,1.263c0,0.692-0.484,1.211-1.176,1.211c-0.743,0-1.279-0.173-2.058-0.173
			c-0.761,0-1.504,0.173-2.247,0.173c-0.675,0-1.158-0.484-1.158-1.125c0-0.744,0.362-1.177,0.847-1.177
			c0.087,0,0.19,0.018,0.328,0.018c0.242,0,0.398-0.121,0.398-0.364c0-0.121-0.035-0.208-0.052-0.311
			c-0.035-0.173-0.104-0.502-0.19-0.641c-0.104-0.173-0.276-0.173-0.536-0.173h-0.38H29.502z M29.502,52.454
			c-0.018,0.069-0.052,0.121-0.052,0.19c0,0.139,0.207,0.225,0.656,0.225h0.467c0.623,0,0.761-0.069,0.761-0.242
			c0-0.121-0.052-0.346-0.086-0.467l-0.709-3.201h-0.034L29.502,52.454z"/>
		<path fill="#9A77AC" d="M43.423,53.458c0-0.969-0.398-1.401-1.072-1.419c-0.57-0.017-1.643,0.363-1.643,1.921v1.661
			c0,1.003,0.069,1.211,0.208,1.211c0.068,0,0.12-0.035,0.189-0.069c0.069-0.035,0.139-0.052,0.26-0.052
			c0.259,0,0.501,0.26,0.501,0.986c0,0.658-0.207,1.194-0.691,1.194c-0.795,0-1.486-0.173-2.195-0.173
			c-0.657,0-1.314,0.173-1.902,0.173c-0.432,0-0.726-0.536-0.726-1.194c0-0.519,0.19-0.986,0.761-0.986
			c0.121,0,0.207,0.035,0.312,0.052c0.086,0.017,0.173,0.069,0.259,0.069c0.242,0,0.312-0.19,0.312-1.211v-2.492
			c0-0.986-0.087-1.211-0.312-1.211c-0.173,0-0.346,0.121-0.57,0.121c-0.57,0-0.761-0.467-0.761-0.986
			c0-0.657,0.294-1.194,0.674-1.194c0.398,0,0.83,0.173,1.418,0.173c0.484,0,0.795-0.173,1.228-0.173c0.484,0,0.484,0.208,0.484,0.9
			v0.433h0.034c0.743-0.935,1.764-1.592,3.008-1.592c1.521,0,2.939,1.09,2.939,3.098v2.924c0,1.038,0.104,1.211,0.312,1.211
			c0.086,0,0.173-0.035,0.259-0.069c0.104-0.035,0.208-0.052,0.312-0.052c0.57,0,0.761,0.467,0.761,0.986
			c0,0.658-0.294,1.194-1.021,1.194c-0.743,0-1.435-0.173-2.144-0.173c-0.657,0-1.037,0.173-1.659,0.173
			c-0.381,0-0.692-0.294-0.692-1.194c0-0.779,0.294-0.986,0.536-0.986c0.087,0,0.156,0.035,0.208,0.052
			c0.068,0.034,0.138,0.069,0.189,0.069c0.208,0,0.226-0.242,0.226-1.211V53.458z M44.633,45.965c0.501,0,0.777,0.415,0.777,0.882
			c0,1.194-1.417,1.886-2.454,1.886c-1.003,0-1.954-0.709-2.49-0.709c-0.276,0-0.467,0.156-0.691,0.294
			c-0.225,0.173-0.501,0.398-0.813,0.398c-0.519,0-0.847-0.45-0.847-0.952c0-0.45,0.276-0.935,0.588-1.229
			c0.432-0.415,1.141-0.658,1.746-0.658c0.483,0,0.968,0.173,1.417,0.346c0.449,0.19,0.882,0.363,1.263,0.363
			c0.346,0,0.501-0.138,0.777-0.329C44.183,46.086,44.288,45.965,44.633,45.965z"/>
		<path fill="#9A77AC" d="M56.341,54.253c0,2.873-1.452,4.862-4.478,4.862c-3.009,0-4.616-1.799-4.616-4.758
			c0-2.942,1.607-4.759,4.599-4.759C54.681,49.599,56.341,51.468,56.341,54.253z M50.1,54.357c0,2.007,0.899,2.578,1.607,2.578
			c0.605,0,1.124-0.173,1.4-0.744c0.26-0.536,0.381-1.246,0.381-1.834c0-2.007-0.761-2.578-1.694-2.578
			C50.982,51.779,50.1,52.419,50.1,54.357z"/>
		<path fill="#9A77AC" d="M60.147,49.599c0.778,0,1.694,0.26,2.265,0.813c0.034-0.605,0.433-0.744,0.985-0.744
			c0.415,0,0.864,0.086,0.864,0.623c0,0.312-0.121,0.658-0.121,1.038c0,0.416,0.121,0.658,0.121,1.021
			c0,0.346-0.276,0.727-1.003,0.727c-1.486,0-1.02-1.488-2.68-1.488c-0.64,0-0.95,0.277-0.95,0.709c0,0.38,0.207,0.605,1.089,0.761
			l0.743,0.138c1.746,0.329,3.303,0.675,3.303,2.821c0,1.955-1.833,3.097-3.648,3.097c-1.02,0-2.057-0.329-2.835-1.003
			c0.034,0.536-0.328,0.848-0.864,0.848s-1.003-0.138-1.003-0.779c0-0.346,0.087-0.675,0.087-1.038c0-0.346-0.087-0.675-0.087-1.021
			c0-0.554,0.553-0.796,1.037-0.796c0.64,0,0.899,0.208,1.245,0.709c0.207,0.294,0.397,0.606,0.726,0.761
			c0.397,0.19,0.83,0.294,1.263,0.294c0.916,0,1.228-0.433,1.228-0.779c0-0.519-0.415-0.692-1.557-0.882
			c-1.78-0.294-3.44-0.588-3.44-2.82C56.914,50.724,58.314,49.599,60.147,49.599z"/>
	</g>
</g>
<g>
</g>
<g>
</g>
<g>
</g>
<g>
</g>
<g>
</g>
<g>
</g>
</svg>
