<?xml version="1.0" encoding="utf-8"?>
<!-- Generator: Adobe Illustrator 16.0.0, SVG Export Plug-In . SVG Version: 6.00 Build 0)  -->
<!DOCTYPE svg PUBLIC "-//W3C//DTD SVG 1.1//EN" "http://www.w3.org/Graphics/SVG/1.1/DTD/svg11.dtd">
<svg version="1.1" id="Capa_1" xmlns="http://www.w3.org/2000/svg" xmlns:xlink="http://www.w3.org/1999/xlink" x="0px" y="0px"
	 width="480px" height="139.763px" viewBox="0 0 480 139.763" enable-background="new 0 0 480 139.763" xml:space="preserve">
<g>
	<path fill="#FFFFFF" stroke="#FFFFFF" stroke-width="6" stroke-miterlimit="10" d="M69.946,45.607
		c-0.724,2.08-2.085,2.521-4.252,2.521c-2.169,0-3.53-0.442-4.253-2.521L52.852,20.47c-0.297-0.842-0.425-1.548-0.425-2.125
		c0-2.433,1.786-3.229,3.529-3.229c1.871,0,2.891,1.019,3.529,3.186l6.294,21.685h0.084l6.548-21.685
		c0.638-2.167,1.658-3.186,3.274-3.186c1.743,0,3.53,0.796,3.53,3.229c0,0.577-0.129,1.284-0.426,2.125L69.946,45.607z"/>
	<path fill="#FFFFFF" stroke="#FFFFFF" stroke-width="6" stroke-miterlimit="10" d="M81.555,18.743c0-2.168,1.361-3.628,3.486-3.628
		c2.127,0,3.488,1.46,3.488,3.628v25.758c0,2.167-1.361,3.627-3.488,3.627c-2.125,0-3.486-1.46-3.486-3.627V18.743z"/>
	<path fill="#FFFFFF" stroke="#FFFFFF" stroke-width="6" stroke-miterlimit="10" d="M108.386,45.607
		c-0.72,2.08-2.083,2.521-4.25,2.521c-2.169,0-3.529-0.442-4.253-2.521L91.293,20.47c-0.297-0.842-0.425-1.548-0.425-2.125
		c0-2.433,1.786-3.229,3.53-3.229c1.871,0,2.892,1.019,3.529,3.186l6.293,21.685h0.085l6.548-21.685
		c0.638-2.167,1.66-3.186,3.275-3.186c1.743,0,3.529,0.796,3.529,3.229c0,0.577-0.127,1.284-0.425,2.125L108.386,45.607z"/>
	<path fill="#FFFFFF" stroke="#FFFFFF" stroke-width="6" stroke-miterlimit="10" d="M124.249,7.325
		c0.85-0.707,1.828-1.504,2.848-1.504c1.702,0,2.297,1.549,2.297,2.435c0,0.841-0.553,1.682-1.573,2.39l-3.827,2.7
		c-1.063,0.752-1.531,0.797-1.957,0.797c-0.977,0-2.167-0.664-2.167-2.169c0-0.796,0.298-1.327,1.233-2.124L124.249,7.325z
		 M119.998,18.743c0-2.168,1.36-3.628,3.485-3.628c2.127,0,3.487,1.46,3.487,3.628v25.758c0,2.167-1.36,3.627-3.487,3.627
		c-2.125,0-3.485-1.46-3.485-3.627V18.743z"/>
	<path fill="#FFFFFF" stroke="#FFFFFF" stroke-width="6" stroke-miterlimit="10" d="M84.692,58.87c3.977,0,6.946,2.341,6.946,4.65
		c0,1.424-1.011,2.136-2.218,2.136c-2.249,0-1.433-2.917-4.858-2.917c-1.857,0-4.043,1.323-4.043,5.802
		c0,3.087,1.401,5.09,4.01,5.09c3.326,0,2.609-3.189,5.119-3.189c1.207,0,1.99,0.916,1.99,1.899c0,2.173-2.348,5.159-7.238,5.159
		c-5.87,0-8.641-3.767-8.641-8.959C75.758,62.84,78.855,58.87,84.692,58.87z"/>
	<path fill="#FFFFFF" stroke="#FFFFFF" stroke-width="6" stroke-miterlimit="10" d="M101.286,58.87c5.739,0,8.804,4.071,8.804,9.298
		c0,4.955-2.315,9.332-8.804,9.332c-6.489,0-8.803-4.377-8.803-9.332C92.482,62.941,95.547,58.87,101.286,58.87z M101.286,73.834
		c2.837,0,4.043-2.647,4.043-5.667c0-3.224-1.271-5.633-4.043-5.633c-2.771,0-4.043,2.41-4.043,5.633
		C97.243,71.187,98.449,73.834,101.286,73.834z"/>
	<path fill="#FFFFFF" stroke="#FFFFFF" stroke-width="6" stroke-miterlimit="10" d="M112.174,61.347
		c0-1.493,0.652-2.478,2.152-2.478c1.5,0,2.152,0.984,2.152,2.478v0.646h0.065c1.336-1.833,3.066-3.123,5.771-3.123
		c2.868,0,5.999,1.492,5.999,6.516v9.637c0,1.323-0.522,2.478-2.381,2.478c-1.857,0-2.38-1.154-2.38-2.478v-8.653
		c0-2.002-0.945-3.428-2.999-3.428c-1.662,0-3.618,1.426-3.618,3.903v8.178c0,1.323-0.523,2.478-2.379,2.478
		c-1.86,0-2.382-1.154-2.382-2.478V61.347z"/>
</g>
<g>
	<path fill="#BF002D" d="M69.946,45.607c-0.724,2.08-2.085,2.521-4.252,2.521c-2.169,0-3.53-0.442-4.253-2.521L52.852,20.47
		c-0.297-0.842-0.425-1.548-0.425-2.125c0-2.433,1.786-3.229,3.529-3.229c1.871,0,2.891,1.019,3.529,3.186l6.294,21.685h0.084
		l6.548-21.685c0.638-2.167,1.658-3.186,3.274-3.186c1.743,0,3.53,0.796,3.53,3.229c0,0.577-0.129,1.284-0.426,2.125L69.946,45.607z
		"/>
	<path fill="#BF002D" d="M81.555,18.743c0-2.168,1.361-3.628,3.486-3.628c2.127,0,3.488,1.46,3.488,3.628v25.758
		c0,2.167-1.361,3.627-3.488,3.627c-2.125,0-3.486-1.46-3.486-3.627V18.743z"/>
	<path fill="#BF002D" d="M108.386,45.607c-0.72,2.08-2.083,2.521-4.25,2.521c-2.169,0-3.529-0.442-4.253-2.521L91.293,20.47
		c-0.297-0.842-0.425-1.548-0.425-2.125c0-2.433,1.786-3.229,3.53-3.229c1.871,0,2.892,1.019,3.529,3.186l6.293,21.685h0.085
		l6.548-21.685c0.638-2.167,1.66-3.186,3.275-3.186c1.743,0,3.529,0.796,3.529,3.229c0,0.577-0.127,1.284-0.425,2.125
		L108.386,45.607z"/>
	<path fill="#BF002D" d="M124.249,7.325c0.85-0.707,1.828-1.504,2.848-1.504c1.702,0,2.297,1.549,2.297,2.435
		c0,0.841-0.553,1.682-1.573,2.39l-3.827,2.7c-1.063,0.752-1.531,0.797-1.957,0.797c-0.977,0-2.167-0.664-2.167-2.169
		c0-0.796,0.298-1.327,1.233-2.124L124.249,7.325z M119.998,18.743c0-2.168,1.36-3.628,3.485-3.628c2.127,0,3.487,1.46,3.487,3.628
		v25.758c0,2.167-1.36,3.627-3.487,3.627c-2.125,0-3.485-1.46-3.485-3.627V18.743z"/>
	<path fill="#BF002D" d="M84.692,58.87c3.977,0,6.946,2.341,6.946,4.65c0,1.424-1.011,2.136-2.218,2.136
		c-2.249,0-1.433-2.917-4.858-2.917c-1.857,0-4.043,1.323-4.043,5.802c0,3.087,1.401,5.09,4.01,5.09
		c3.326,0,2.609-3.189,5.119-3.189c1.207,0,1.99,0.916,1.99,1.899c0,2.173-2.348,5.159-7.238,5.159c-5.87,0-8.641-3.767-8.641-8.959
		C75.758,62.84,78.855,58.87,84.692,58.87z"/>
	<path fill="#BF002D" d="M101.286,58.87c5.739,0,8.804,4.071,8.804,9.298c0,4.955-2.315,9.332-8.804,9.332
		c-6.489,0-8.803-4.377-8.803-9.332C92.482,62.941,95.547,58.87,101.286,58.87z M101.286,73.834c2.837,0,4.043-2.647,4.043-5.667
		c0-3.224-1.271-5.633-4.043-5.633c-2.771,0-4.043,2.41-4.043,5.633C97.243,71.187,98.449,73.834,101.286,73.834z"/>
	<path fill="#BF002D" d="M112.174,61.347c0-1.493,0.652-2.478,2.152-2.478c1.5,0,2.152,0.984,2.152,2.478v0.646h0.065
		c1.336-1.833,3.066-3.123,5.771-3.123c2.868,0,5.999,1.492,5.999,6.516v9.637c0,1.323-0.522,2.478-2.381,2.478
		c-1.857,0-2.38-1.154-2.38-2.478v-8.653c0-2.002-0.945-3.428-2.999-3.428c-1.662,0-3.618,1.426-3.618,3.903v8.178
		c0,1.323-0.523,2.478-2.379,2.478c-1.86,0-2.382-1.154-2.382-2.478V61.347z"/>
</g>
<g>
	
		<polygon fill="#BF002D" stroke="#FFFFFF" stroke-width="5.4247" stroke-linecap="round" stroke-linejoin="round" stroke-miterlimit="10" points="
		141.414,82.726 410.289,82.726 439.388,4.537 141.44,4.537 	"/>
	<polygon fill="#BF002D" points="141.414,82.726 410.289,82.726 439.388,4.537 141.44,4.537 	"/>
	<g>
		<path fill="#FFFFFF" d="M409.748,25.387c0.466,0,0.866,0,0.866-0.498c0-0.405-0.4-0.405-0.866-0.405h-1.013v0.903H409.748z
			 M411.534,28.218h-1.093l-0.992-1.952h-0.714v1.952h-0.93v-4.614h2.145c0.946,0,1.509,0.327,1.509,1.409
			c0,0.792-0.435,1.201-0.997,1.253L411.534,28.218z M412.698,25.917c0-1.963-1.325-3.25-3.136-3.25
			c-1.846,0-3.135,1.286-3.135,3.25s1.289,3.259,3.135,3.259C411.373,29.177,412.698,27.881,412.698,25.917 M405.323,25.917
			c0-2.438,1.875-4.4,4.239-4.4c2.353,0,4.239,1.962,4.239,4.4c0,2.451-1.887,4.41-4.239,4.41
			C407.198,30.327,405.323,28.369,405.323,25.917"/>
	</g>
	<polygon fill="#FFFFFF" points="251.81,16.194 235.7,59.435 246.385,59.435 262.502,16.194 	"/>
	<g>
		<path fill="#FFFFFF" d="M213.064,54.731c-2.582,0-4.445-0.678-5.536-2.003c-1.183-1.443-1.485-3.678-0.903-6.647
			c1.056-5.396,5.548-13.424,13.618-13.424c1.947,0,3.403,0.577,4.329,1.705c1.069,1.303,1.392,3.337,0.931,5.735
			C222.776,54.02,214.664,54.731,213.064,54.731 M220.455,27.222c-10.829,0-22.733,6.738-24.923,18.106
			c-2.329,12.142,8.054,14.757,14.719,14.834c14.991,0.188,24.115-9.155,26.207-18.668
			C238.463,32.358,230.715,27.222,220.455,27.222"/>
		<path fill="#FFFFFF" d="M319.25,44.257c-5.661,0.606-7.769,2.139-8.242,4.968c-0.381,2.27,1.03,4.381,6.298,4.149
			c3.076-0.143,6.413-0.919,8.768-2.151l2.624-7.122C324.765,43.862,322.103,43.954,319.25,44.257 M310.848,28.261
			c3.924-0.651,7.637-1.345,14.807-1.345c11.512,0,18.585,3.961,15.284,12.917c-1.43,3.86-2.904,7.912-4.157,11.325
			c-1.752,4.759-1.373,6.586-1.007,8.276c0,0-2.716-1.028-8.354-0.866c-5.053,0.148-7.235,1.493-15.516,1.493
			c-8.956,0-12.235-4.621-11.887-9.501c0.31-4.283,2.605-8.016,7.729-10.137c3.392-1.406,6.768-1.88,10.267-2.159
			c5.411-0.444,10.222-0.204,12.839,0c0.478-1.604,1.147-4.873-6.446-4.92c-8.132-0.063-13.682,1.417-16.253,2.244L310.848,28.261z"
			/>
		<path fill="#FFFFFF" d="M273.516,53.92c-6.25,0-5.687-6.321-3.489-11.253c2.822-6.32,8.503-9.214,12.118-9.353
			c2.694-0.11,4.939,0.319,6.738,2.098C284.646,52.572,276.059,53.92,273.516,53.92 M297.121,28.8
			c-5.503,0-5.743-1.566-14.693-1.566c-12.846,0-23.412,9.845-24.919,20.703c-0.482,3.431,0.446,6.493,2.343,8.644
			c1.965,2.24,4.938,3.112,8.456,3.278c5.208,0.231,9.975-0.846,14.536-3.956c-2.671,8.253-11.791,9.972-17.912,9.933
			c-2.989-0.019-6.262-0.153-8.85-1.443l-2.683,7.011c2.683,0.753,6.693,1.238,9.9,1.238c15.021,0,24.671-5.587,28.697-16.595
			l10.257-28.108C302.254,27.94,299.199,28.8,297.121,28.8"/>
		<path fill="#FFFFFF" d="M191.851,50.355c-1.959,0.969-6.674,2.438-10.417,2.438c-10.089,0-13.187-6.373-12.111-12.585
			c1.771-10.24,11.257-18.007,22.511-18.007c3.465,0,6.583,0.689,9.355,1.875l3.279-6.656c-2.768-1.311-6.694-2.127-10.362-2.127
			c-17.967,0-34.778,10.663-37.163,24.875c-2.101,12.536,8.304,19.534,21.085,19.534c3.436,0,7.241-0.567,10.4-1.336L191.851,50.355
			z"/>
		<path fill="#FFFFFF" d="M363.674,26.988l2.263-6.299l-11.392,2.044l-1.552,4.255h-5.014l-1.813,5.187h4.978l-5.984,15.412
			c-1.536,3.918-1.613,6.785-0.246,8.754c1.34,1.924,4.002,2.87,8.14,2.87c2.313,0,5.455-0.496,7.905-1.168l2.415-6.071v-0.008
			c-1.37,0.588-3.582,1.183-5.393,1.257c-1.28,0.05-2.024-0.245-2.498-0.897c-0.676-0.926-0.494-2.78,0.479-5.317
			c0,0.002,4.94-12.634,5.795-14.831h7.487l1.915-5.187H363.674z"/>
		<path fill="#FFFFFF" d="M390.34,32.362c1.947,0,3.3,0.514,4.053,1.535c0.891,1.202,0.926,3.168,0.125,5.674h-13.949
			C381.637,36.121,384.737,32.362,390.34,32.362 M398.498,52.244L398.498,52.244c-2.983,1.518-8.161,2.34-11.615,2.34
			c-3.014,0-5.476-1.051-6.94-2.953c-1.322-1.734-1.661-4.044-0.995-6.552h24.538l0.116-0.333c1.927-5.568,1.685-10.396-0.679-13.6
			c-2.162-2.938-5.919-4.428-11.142-4.428c-11.612,0-21.519,6.744-24.082,16.393c-1.298,4.877-0.622,9.157,1.933,12.366
			c2.825,3.55,7.773,5.501,13.946,5.501c3.552,0,7.842-0.657,11.726-1.875L398.498,52.244z"/>
	</g>
	<polygon fill="#9A999E" points="264.169,18.817 248.275,61.459 239.906,61.459 239.158,63.468 249.845,63.468 266.485,18.817 	"/>
	<g>
		<path fill="#9A999E" d="M321.138,46.275c-5.664,0.607-7.763,2.141-8.239,4.975c-0.029,0.149-0.041,0.294-0.047,0.443
			c0.41,0.26,1.009,0.491,1.854,0.628c0.783-2.235,3.008-3.496,8.003-4.034c1.191-0.125,2.353-0.213,3.58-0.252
			c0.252-0.69,0.52-1.411,0.75-2.046C324.874,45.969,323.043,46.076,321.138,46.275"/>
		<path fill="#9A999E" d="M208.513,48.103c-0.316,1.613-0.36,3.003-0.155,4.177c0.382,0.406,0.869,0.731,1.457,0.976
			c-0.042-0.934,0.042-1.978,0.268-3.144c1.059-5.396,5.554-13.42,13.624-13.42c0.341,0,0.665,0.022,0.973,0.055
			c-0.141-0.705-0.399-1.31-0.784-1.782c-0.039-0.045-0.091-0.076-0.128-0.121c-0.502-0.105-1.041-0.166-1.633-0.166
			C214.065,34.678,209.57,42.71,208.513,48.103"/>
		<path fill="#9A999E" d="M301.186,44.389l5.053-13.825c0,0-1.144,0.323-2.508,0.576l-9.844,26.929
			c-4.024,11.006-13.675,16.596-28.696,16.596c-2.433,0-5.32-0.281-7.751-0.745l-0.577,1.517c2.683,0.753,6.693,1.234,9.897,1.234
			c15.021,0,24.674-5.585,28.693-16.592l3.734-10.218C299.39,48.149,299.94,46.214,301.186,44.389"/>
		<path fill="#9A999E" d="M312.824,36.422l-0.658,1.696c1.978-0.417,3.922-0.632,5.782-0.779c4.83-0.397,9.147-0.26,12.181-0.052
			c0.027-0.177,0.099-0.363,0.099-0.535c0-0.351-0.077-0.687-0.291-0.98c-0.012-0.01-0.012-0.02-0.025-0.033
			c-0.92-0.227-3.417-0.593-4.93-0.602C318.951,35.086,315.853,35.666,312.824,36.422"/>
		<path fill="#9A999E" d="M287.751,35.682c-1.126-0.319-2.361-0.401-3.716-0.346c-3.615,0.134-9.299,3.032-12.119,9.355
			c-1.077,2.414-1.753,5.162-1.432,7.332c0.387,0.365,0.893,0.629,1.504,0.784c0.015-1.931,0.616-4.125,1.5-6.108
			c2.82-6.321,8.504-9.216,12.116-9.357c0.631-0.021,1.224-0.002,1.804,0.043c0.155-0.525,0.307-1.062,0.453-1.624
			C287.825,35.731,287.786,35.707,287.751,35.682"/>
		<path fill="#9A999E" d="M263.312,60.613c1.965,2.241,4.937,3.11,8.456,3.278c0.273,0.008,0.539,0.011,0.81,0.013
			c2.034-0.586,4.086-1.515,5.807-2.956c-2.626,0.774-5.339,1.06-8.186,0.931c-2.763-0.13-5.181-0.711-7.045-2.038
			c-0.202-0.076-0.398-0.156-0.595-0.24C262.791,59.955,263.034,60.297,263.312,60.613"/>
		<path fill="#9A999E" d="M205.782,20.612l-2.708,5.487c-2.77-1.187-5.886-1.881-9.352-1.881c-11.253,0-20.744,7.774-22.508,18.008
			c-0.319,1.842-0.26,3.69,0.226,5.386c0.135,0.213,0.281,0.426,0.439,0.623c0.306,0.383,0.664,0.729,1.043,1.052
			c-0.404-1.604-0.439-3.33-0.14-5.048c1.77-10.238,11.257-18.009,22.508-18.009c3.466,0,6.583,0.692,9.356,1.878l3.282-6.658
			C207.271,21.141,206.546,20.864,205.782,20.612"/>
		<path fill="#9A999E" d="M190.32,60.387c-3.162,0.769-6.968,1.334-10.4,1.334c-5.243,0-10.077-1.181-13.824-3.43
			c-0.824-0.373-1.615-0.779-2.362-1.229c3.854,4.351,10.406,6.671,17.758,6.671c3.43,0,7.239-0.564,10.401-1.335l3.417-8.015
			c-0.686,0.341-1.708,0.739-2.905,1.118L190.32,60.387z"/>
	</g>
	<polygon fill="#9A999E" points="366.627,26.056 368.914,26.056 369.92,23.314 367.47,23.756 	"/>
	<path fill="#9A999E" d="M362.853,60.058c-2.457,0.673-5.604,1.173-7.911,1.173c-3.231,0-5.548-0.588-7.051-1.756
		c0.131,0.314,0.291,0.613,0.485,0.894c1.336,1.928,4.001,2.869,8.14,2.869c2.311,0,5.449-0.493,7.909-1.168l2.408-6.064v-0.013
		c-0.727,0.312-1.694,0.623-2.707,0.862L362.853,60.058z"/>
	<path fill="#9A999E" d="M342.882,34.522c0.988,1.911,1.048,4.345-0.051,7.329c-1.433,3.86-2.909,7.917-4.162,11.324
		c-1.748,4.764-1.372,6.589-1.007,8.285c0,0-2.716-1.038-8.354-0.871c-5.05,0.148-7.238,1.496-15.513,1.496
		c-3.832,0-6.621-0.853-8.533-2.205c-0.199-0.075-0.399-0.15-0.584-0.241c1.635,2.599,5.014,4.456,10.687,4.456
		c8.28,0,10.463-1.345,15.513-1.494c5.643-0.164,8.357,0.868,8.357,0.868c-0.372-1.689-0.744-3.52,1.007-8.282
		c1.253-3.41,2.728-7.461,4.156-11.324C345.928,39.709,345.225,36.629,342.882,34.522"/>
	<path fill="#9A999E" d="M239.915,45.538c0.002-0.004,0.002-0.006,0.002-0.006c0.905-4.124-0.179-7.426-2.574-9.818
		c1.247,2.123,1.679,4.735,1.004,7.8c-2.094,9.517-11.216,18.857-26.209,18.67c-3.22-0.037-7.299-0.676-10.4-2.686
		c-0.403-0.167-0.804-0.361-1.198-0.563c2.966,4.089,8.848,5.209,13.172,5.261c12.016,0.148,20.258-5.828,24.137-13.104
		L239.915,45.538z"/>
	<path fill="#9A999E" d="M374.41,31.595l0.212-0.578h-2.312l-1.172,3.179h-7.491c-0.854,2.194-5.798,14.83-5.798,14.827
		c-0.474,1.244-0.759,2.317-0.849,3.201c0.241,0.052,0.542,0.077,0.95,0.061c0.349-0.017,0.711-0.052,1.071-0.101
		c0.113-0.366,0.248-0.747,0.399-1.146c0,0,4.943-12.636,5.794-14.831h4.785C371.228,34.489,372.713,32.94,374.41,31.595"/>
	<path fill="#9A999E" d="M393.717,34.512c0-0.002-0.004-0.003-0.006-0.003c-0.447-0.08-0.936-0.125-1.48-0.125
		c-3.99,0-6.708,1.911-8.331,4.254h3.403c1.602-1.33,3.749-2.24,6.503-2.24c0.134,0,0.263,0.006,0.388,0.011
		c0.002-0.006,0.002-0.016,0.002-0.023c0-0.198-0.012-0.385-0.032-0.562C394.104,35.296,393.951,34.856,393.717,34.512"/>
	<path fill="#9A999E" d="M406.386,35.178c-0.307-0.413-0.644-0.792-1.021-1.148c1.836,3.179,1.887,7.648,0.127,12.735l-0.121,0.336
		h-24.532c-0.381,1.415-0.427,2.765-0.157,3.983c0.192,0.251,0.41,0.48,0.643,0.691c0.021,0.019,0.041,0.037,0.063,0.054
		c0.229,0.202,0.479,0.392,0.744,0.563l0,0c-0.113-1.025-0.029-2.131,0.277-3.28h24.534l0.122-0.337
		C408.993,43.211,408.749,38.383,406.386,35.178"/>
	<path fill="#9A999E" d="M397.19,61.123c-3.879,1.217-8.167,1.879-11.722,1.879c-4.319,0-8.036-0.962-10.85-2.752l0,0
		c-0.527-0.225-1.03-0.463-1.514-0.732c2.823,3.548,7.772,5.493,13.936,5.493c3.555,0,7.842-0.657,11.723-1.873l3.194-6.861
		c-0.86,0.436-1.905,0.813-3.031,1.135L397.19,61.123z"/>
</g>
<g>
	<path fill="#FFFFFF" stroke="#FFFFFF" stroke-width="7" stroke-miterlimit="10" d="M6.393,102.426c0-2.368,1.548-3.965,3.967-3.965
		s3.966,1.597,3.966,3.965v24.818h13.256c2.275,0,4.111,1.16,4.111,3.338c0,2.177-1.836,3.337-4.111,3.337H11.037
		c-2.804,0-4.644-1.111-4.644-4.644V102.426z"/>
	<path fill="#FFFFFF" stroke="#FFFFFF" stroke-width="7" stroke-miterlimit="10" d="M42.29,100.878
		c0.676-1.79,1.934-2.417,3.869-2.417h1.886c1.791,0,3.385,0.435,4.257,2.902l9.578,26.654c0.292,0.774,0.774,2.177,0.774,3.048
		c0,1.934-1.691,3.484-3.725,3.484c-1.741,0-2.998-0.631-3.58-2.179l-2.031-5.803H40.547l-2.08,5.803
		c-0.53,1.548-1.644,2.179-3.532,2.179c-2.176,0-3.675-1.357-3.675-3.484c0-0.871,0.485-2.273,0.774-3.048L42.29,100.878z
		 M47.078,107.071h-0.096l-4.692,13.981h9.288L47.078,107.071z"/>
	<path fill="#FFFFFF" stroke="#FFFFFF" stroke-width="7" stroke-miterlimit="10" d="M72.25,102.379c0-3.192,2.176-3.918,4.303-3.918
		h2.322c2.469,0,3.63,0.968,4.45,3.627l6.918,22.349h0.098l6.821-22.349c0.822-2.659,1.983-3.627,4.45-3.627h2.226
		c2.129,0,4.305,0.726,4.305,3.918v28.301c0,1.982-0.966,3.87-3.531,3.87c-2.565,0-3.53-1.888-3.53-3.87v-21.576h-0.098
		l-7.402,23.124c-0.531,1.644-1.741,2.322-3.387,2.322c-1.644,0-2.853-0.679-3.386-2.322l-7.402-23.124h-0.097v21.576
		c0,1.982-0.967,3.87-3.531,3.87c-2.563,0-3.529-1.888-3.529-3.87V102.379z"/>
	<path fill="#FFFFFF" stroke="#FFFFFF" stroke-width="7" stroke-miterlimit="10" d="M112.525,103.734
		c0-3.531,1.838-4.646,4.644-4.646h18.625c2.32,0,4.014,0.68,4.014,3.194c0,2.517-1.694,3.192-4.014,3.192H120.46v7.549h13.448
		c2.079,0,3.724,0.577,3.724,3.046c0,2.466-1.645,3.047-3.724,3.047H120.46v8.416h15.72c2.324,0,4.016,0.679,4.016,3.195
		c0,2.515-1.692,3.191-4.016,3.191h-19.011c-2.806,0-4.644-1.111-4.644-4.644V103.734z"/>
	<path fill="#FFFFFF" stroke="#FFFFFF" stroke-width="7" stroke-miterlimit="10" d="M162.865,123.036
		c0,7.306-4.064,11.706-11.901,11.706c-9.53,0-11.318-6.337-11.318-9.77c0-2.952,1.354-4.838,3.771-4.838
		c2.854,0,3.581,2.224,3.581,4.595c0,2.273,1.064,3.919,3.871,3.919c2.61,0,4.063-1.936,4.063-5.709v-20.513
		c0-2.368,1.548-3.965,3.966-3.965c2.419,0,3.968,1.597,3.968,3.965V123.036z"/>
	<path fill="#FFFFFF" stroke="#FFFFFF" stroke-width="7" stroke-miterlimit="10" d="M183.26,98.267
		c11.416,0,17.609,7.596,17.609,17.803c0,9.819-5.711,18.672-17.609,18.672c-12.482,0-17.61-8.126-17.61-18.672
		C165.649,105.863,171.843,98.267,183.26,98.267z M183.26,128.357c7.208,0,9.673-5.612,9.673-12.287
		c0-6.676-3.191-11.416-9.673-11.416c-6.483,0-9.675,4.74-9.675,11.416C173.584,122.745,175.809,128.357,183.26,128.357z"/>
	<path fill="#FFFFFF" stroke="#FFFFFF" stroke-width="7" stroke-miterlimit="10" d="M203.655,103.734
		c0-3.531,1.837-4.646,4.644-4.646h13.205c9.434,0,11.949,5.178,11.949,9.676c0,3.774-2.226,7.499-6,8.368v0.099
		c4.063,0.58,4.792,3.531,4.792,7.063c0,4.015,1.062,5.515,1.062,7.161c0,1.837-1.886,3.096-3.725,3.096
		c-4.353,0-4.691-4.209-4.691-5.612c0-6.095-1.112-8.563-5.467-8.563h-7.835v10.208c0,2.369-1.548,3.968-3.967,3.968
		s-3.966-1.599-3.966-3.968V103.734z M211.588,114.572h7.932c3.001,0,6-0.775,6-4.695c0-3.723-2.274-4.691-5.757-4.691h-8.175
		V114.572z"/>
	<path fill="#BF002D" d="M6.393,102.426c0-2.368,1.548-3.965,3.967-3.965s3.966,1.597,3.966,3.965v24.818h13.256
		c2.275,0,4.111,1.16,4.111,3.338c0,2.177-1.836,3.337-4.111,3.337H11.037c-2.804,0-4.644-1.111-4.644-4.644V102.426z"/>
	<path fill="#BF002D" d="M42.29,100.878c0.676-1.79,1.934-2.417,3.869-2.417h1.886c1.791,0,3.385,0.435,4.257,2.902l9.578,26.654
		c0.292,0.774,0.774,2.177,0.774,3.048c0,1.934-1.691,3.484-3.725,3.484c-1.741,0-2.998-0.631-3.58-2.179l-2.031-5.803H40.547
		l-2.08,5.803c-0.53,1.548-1.644,2.179-3.532,2.179c-2.176,0-3.675-1.357-3.675-3.484c0-0.871,0.485-2.273,0.774-3.048
		L42.29,100.878z M47.078,107.071h-0.096l-4.692,13.981h9.288L47.078,107.071z"/>
	<path fill="#BF002D" d="M72.25,102.379c0-3.192,2.176-3.918,4.303-3.918h2.322c2.469,0,3.63,0.968,4.45,3.627l6.918,22.349h0.098
		l6.821-22.349c0.822-2.659,1.983-3.627,4.45-3.627h2.226c2.129,0,4.305,0.726,4.305,3.918v28.301c0,1.982-0.966,3.87-3.531,3.87
		c-2.565,0-3.53-1.888-3.53-3.87v-21.576h-0.098l-7.402,23.124c-0.531,1.644-1.741,2.322-3.387,2.322
		c-1.644,0-2.853-0.679-3.386-2.322l-7.402-23.124h-0.097v21.576c0,1.982-0.967,3.87-3.531,3.87c-2.563,0-3.529-1.888-3.529-3.87
		V102.379z"/>
	<path fill="#BF002D" d="M112.525,103.734c0-3.531,1.838-4.646,4.644-4.646h18.625c2.32,0,4.014,0.68,4.014,3.194
		c0,2.517-1.694,3.192-4.014,3.192H120.46v7.549h13.448c2.079,0,3.724,0.577,3.724,3.046c0,2.466-1.645,3.047-3.724,3.047H120.46
		v8.416h15.72c2.324,0,4.016,0.679,4.016,3.195c0,2.515-1.692,3.191-4.016,3.191h-19.011c-2.806,0-4.644-1.111-4.644-4.644V103.734z
		"/>
	<path fill="#BF002D" d="M162.865,123.036c0,7.306-4.064,11.706-11.901,11.706c-9.53,0-11.318-6.337-11.318-9.77
		c0-2.952,1.354-4.838,3.771-4.838c2.854,0,3.581,2.224,3.581,4.595c0,2.273,1.064,3.919,3.871,3.919
		c2.61,0,4.063-1.936,4.063-5.709v-20.513c0-2.368,1.548-3.965,3.966-3.965c2.419,0,3.968,1.597,3.968,3.965V123.036z"/>
	<path fill="#BF002D" d="M183.26,98.267c11.416,0,17.609,7.596,17.609,17.803c0,9.819-5.711,18.672-17.609,18.672
		c-12.482,0-17.61-8.126-17.61-18.672C165.649,105.863,171.843,98.267,183.26,98.267z M183.26,128.357
		c7.208,0,9.673-5.612,9.673-12.287c0-6.676-3.191-11.416-9.673-11.416c-6.483,0-9.675,4.74-9.675,11.416
		C173.584,122.745,175.809,128.357,183.26,128.357z"/>
	<path fill="#BF002D" d="M203.655,103.734c0-3.531,1.837-4.646,4.644-4.646h13.205c9.434,0,11.949,5.178,11.949,9.676
		c0,3.774-2.226,7.499-6,8.368v0.099c4.063,0.58,4.792,3.531,4.792,7.063c0,4.015,1.062,5.515,1.062,7.161
		c0,1.837-1.886,3.096-3.725,3.096c-4.353,0-4.691-4.209-4.691-5.612c0-6.095-1.112-8.563-5.467-8.563h-7.835v10.208
		c0,2.369-1.548,3.968-3.967,3.968s-3.966-1.599-3.966-3.968V103.734z M211.588,114.572h7.932c3.001,0,6-0.775,6-4.695
		c0-3.723-2.274-4.691-5.757-4.691h-8.175V114.572z"/>
</g>
<g>
	<g>
		<path fill="#FFFFFF" stroke="#FFFFFF" stroke-width="7" stroke-miterlimit="10" d="M259.346,131.708
			c-0.655,1.817-1.894,2.203-3.864,2.203c-1.972,0-3.211-0.386-3.868-2.203l-7.813-21.966c-0.271-0.734-0.387-1.354-0.387-1.856
			c0-2.127,1.623-2.823,3.21-2.823c1.703,0,2.629,0.891,3.213,2.784l5.723,18.949h0.077l5.952-18.949
			c0.583-1.894,1.51-2.784,2.98-2.784c1.584,0,3.207,0.696,3.207,2.823c0,0.502-0.117,1.122-0.385,1.856L259.346,131.708z"/>
		<path fill="#FFFFFF" stroke="#FFFFFF" stroke-width="7" stroke-miterlimit="10" d="M287.632,131.088
			c0,1.701-0.774,2.822-2.552,2.822c-1.78,0-2.552-1.121-2.552-2.822v-0.734h-0.08c-1.585,2.087-3.636,3.557-6.843,3.557
			c-3.403,0-7.112-1.7-7.112-7.424v-10.983c0-1.509,0.616-2.822,2.821-2.822c2.201,0,2.823,1.313,2.823,2.822v9.862
			c0,2.281,1.12,3.904,3.555,3.904c1.972,0,4.294-1.623,4.294-4.446v-9.32c0-1.509,0.619-2.822,2.823-2.822
			c2.206,0,2.822,1.313,2.822,2.822V131.088z"/>
		<path fill="#FFFFFF" stroke="#FFFFFF" stroke-width="7" stroke-miterlimit="10" d="M295.728,124.359
			c0,2.978,1.936,5.145,5.22,5.145c4.255,0,4.255-2.785,6.536-2.785c1.354,0,2.319,1.16,2.319,2.204
			c0,3.404-5.452,4.988-8.855,4.988c-7.891,0-10.865-5.336-10.865-10.247c0-6.573,3.984-10.982,10.672-10.982
			c6.499,0,10.21,4.602,10.21,9.241c0,1.933-0.578,2.437-2.476,2.437H295.728z M305.628,121.11c-0.31-2.59-2.242-4.484-4.758-4.484
			c-2.823,0-4.523,1.74-5.143,4.484H305.628z"/>
		<path fill="#FFFFFF" stroke="#FFFFFF" stroke-width="7" stroke-miterlimit="10" d="M313.724,107.885
			c0-1.855,1.122-2.823,2.822-2.823c1.701,0,2.823,0.968,2.823,2.823v23.203c0,1.855-1.122,2.822-2.823,2.822
			c-1.7,0-2.822-0.967-2.822-2.822V107.885z"/>
		<path fill="#FFFFFF" stroke="#FFFFFF" stroke-width="7" stroke-miterlimit="10" d="M324.448,116.896h-0.964
			c-1.588,0-2.242-0.618-2.242-1.856c0-1.239,0.654-1.856,2.242-1.856h0.964v-3.441c0-1.856,1.123-2.823,2.822-2.823
			c1.703,0,2.826,0.967,2.826,2.823v3.441h1.7c1.664,0,2.551,0.503,2.551,1.856c0,1.354-0.887,1.856-2.551,1.856h-1.7v11.292
			c0,0.853,0.461,1.315,1.468,1.315h0.813c1.236,0,1.971,0.696,1.971,1.895c0,1.624-1.39,2.513-4.1,2.513
			c-4.096,0-5.8-1.7-5.8-5.027V116.896z"/>
		<path fill="#FFFFFF" stroke="#FFFFFF" stroke-width="7" stroke-miterlimit="10" d="M354.86,127.956c0,2.358,0.581,2.9,0.581,3.791
			c0,1.275-1.2,2.164-2.556,2.164c-2.435,0-3.247-1.546-3.326-3.286c-2.202,2.436-4.754,3.286-7.731,3.286
			c-3.211,0-6.381-2.203-6.381-5.762c0-4.681,3.555-5.993,7.888-6.496l3.441-0.387c1.354-0.156,2.438-0.466,2.438-2.09
			c0-1.623-1.667-2.319-3.559-2.319c-4.177,0-4.293,3.095-6.538,3.095c-1.429,0-2.396-1.005-2.396-2.167
			c0-2.242,3.171-5.104,8.971-5.104c5.417,0,9.168,1.74,9.168,5.8V127.956z M349.215,123.894c-0.619,0.581-1.78,0.775-2.438,0.891
			l-2.048,0.31c-2.361,0.349-3.636,1.084-3.636,2.784c0,1.276,1.199,2.321,3.129,2.321c3.097,0,4.993-2.012,4.993-4.099V123.894z"/>
		<path fill="#FFFFFF" stroke="#FFFFFF" stroke-width="7" stroke-miterlimit="10" d="M381.675,127.956
			c0,2.358,0.575,2.9,0.575,3.791c0,1.275-1.197,2.164-2.548,2.164c-2.437,0-3.249-1.546-3.33-3.286
			c-2.2,2.436-4.755,3.286-7.732,3.286c-3.21,0-6.38-2.203-6.38-5.762c0-4.681,3.557-5.993,7.89-6.496l3.441-0.387
			c1.353-0.156,2.437-0.466,2.437-2.09c0-1.623-1.665-2.319-3.555-2.319c-4.181,0-4.297,3.095-6.539,3.095
			c-1.432,0-2.4-1.005-2.4-2.167c0-2.242,3.175-5.104,8.972-5.104c5.416,0,9.17,1.74,9.17,5.8V127.956z M376.027,123.894
			c-0.619,0.581-1.78,0.775-2.437,0.891l-2.05,0.31c-2.359,0.349-3.637,1.084-3.637,2.784c0,1.276,1.2,2.321,3.133,2.321
			c3.097,0,4.99-2.012,4.99-4.099V123.894z"/>
		<path fill="#FFFFFF" stroke="#FFFFFF" stroke-width="7" stroke-miterlimit="10" d="M384.1,107.885
			c0-1.855,1.122-2.823,2.826-2.823c1.699,0,2.821,0.968,2.821,2.823v23.203c0,1.855-1.122,2.822-2.821,2.822
			c-1.704,0-2.826-0.967-2.826-2.822V107.885z"/>
		<path fill="#FFFFFF" stroke="#FFFFFF" stroke-width="7" stroke-miterlimit="10" d="M409.577,104.909
			c7.271,0,11.252,4.563,11.252,7.269c0,1.779-0.965,2.862-2.86,2.862c-3.672,0-2.591-5.026-8.392-5.026
			c-3.983,0-7.271,3.442-7.271,9.474c0,5.065,2.013,9.474,7.503,9.474c4.987,0,4.871-5.336,7.926-5.336
			c1.548,0,3.094,0.889,3.094,2.436c0,4.022-4.871,8.006-11.02,8.006c-8.7,0-13.845-4.987-13.845-14.579
			C395.965,111.636,400.606,104.909,409.577,104.909z"/>
		<path fill="#FFFFFF" stroke="#FFFFFF" stroke-width="7" stroke-miterlimit="10" d="M432.483,112.681
			c6.807,0,10.442,4.639,10.442,10.596c0,5.646-2.749,10.634-10.442,10.634s-10.442-4.988-10.442-10.634
			C422.041,117.32,425.674,112.681,432.483,112.681z M432.483,129.733c3.364,0,4.793-3.015,4.793-6.456
			c0-3.674-1.506-6.42-4.793-6.42s-4.797,2.746-4.797,6.42C427.687,126.718,429.119,129.733,432.483,129.733z"/>
		<path fill="#FFFFFF" stroke="#FFFFFF" stroke-width="7" stroke-miterlimit="10" d="M445.682,107.885
			c0-1.855,1.123-2.823,2.826-2.823c1.701,0,2.819,0.968,2.819,2.823v23.203c0,1.855-1.118,2.822-2.819,2.822
			c-1.703,0-2.826-0.967-2.826-2.822V107.885z"/>
		<path fill="#FFFFFF" stroke="#FFFFFF" stroke-width="7" stroke-miterlimit="10" d="M459.736,124.359
			c0,2.978,1.933,5.145,5.219,5.145c4.256,0,4.256-2.785,6.536-2.785c1.355,0,2.319,1.16,2.319,2.204
			c0,3.404-5.452,4.988-8.855,4.988c-7.89,0-10.864-5.336-10.864-10.247c0-6.573,3.981-10.982,10.672-10.982
			c6.5,0,10.209,4.602,10.209,9.241c0,1.933-0.58,2.437-2.474,2.437H459.736z M469.636,121.11c-0.31-2.59-2.244-4.484-4.758-4.484
			c-2.822,0-4.525,1.74-5.142,4.484H469.636z"/>
	</g>
	<g>
		<path fill="#BF002D" d="M259.346,131.708c-0.655,1.817-1.894,2.203-3.864,2.203c-1.972,0-3.211-0.386-3.868-2.203l-7.813-21.966
			c-0.271-0.734-0.387-1.354-0.387-1.856c0-2.127,1.623-2.823,3.21-2.823c1.703,0,2.629,0.891,3.213,2.784l5.723,18.949h0.077
			l5.952-18.949c0.583-1.894,1.51-2.784,2.98-2.784c1.584,0,3.207,0.696,3.207,2.823c0,0.502-0.117,1.122-0.385,1.856
			L259.346,131.708z"/>
		<path fill="#BF002D" d="M287.632,131.088c0,1.701-0.774,2.822-2.552,2.822c-1.78,0-2.552-1.121-2.552-2.822v-0.734h-0.08
			c-1.585,2.087-3.636,3.557-6.843,3.557c-3.403,0-7.112-1.7-7.112-7.424v-10.983c0-1.509,0.616-2.822,2.821-2.822
			c2.201,0,2.823,1.313,2.823,2.822v9.862c0,2.281,1.12,3.904,3.555,3.904c1.972,0,4.294-1.623,4.294-4.446v-9.32
			c0-1.509,0.619-2.822,2.823-2.822c2.206,0,2.822,1.313,2.822,2.822V131.088z"/>
		<path fill="#BF002D" d="M295.728,124.359c0,2.978,1.936,5.145,5.22,5.145c4.255,0,4.255-2.785,6.536-2.785
			c1.354,0,2.319,1.16,2.319,2.204c0,3.404-5.452,4.988-8.855,4.988c-7.891,0-10.865-5.336-10.865-10.247
			c0-6.573,3.984-10.982,10.672-10.982c6.499,0,10.21,4.602,10.21,9.241c0,1.933-0.578,2.437-2.476,2.437H295.728z M305.628,121.11
			c-0.31-2.59-2.242-4.484-4.758-4.484c-2.823,0-4.523,1.74-5.143,4.484H305.628z"/>
		<path fill="#BF002D" d="M313.724,107.885c0-1.855,1.122-2.823,2.822-2.823c1.701,0,2.823,0.968,2.823,2.823v23.203
			c0,1.855-1.122,2.822-2.823,2.822c-1.7,0-2.822-0.967-2.822-2.822V107.885z"/>
		<path fill="#BF002D" d="M324.448,116.896h-0.964c-1.588,0-2.242-0.618-2.242-1.856c0-1.239,0.654-1.856,2.242-1.856h0.964v-3.441
			c0-1.856,1.123-2.823,2.822-2.823c1.703,0,2.826,0.967,2.826,2.823v3.441h1.7c1.664,0,2.551,0.503,2.551,1.856
			c0,1.354-0.887,1.856-2.551,1.856h-1.7v11.292c0,0.853,0.461,1.315,1.468,1.315h0.813c1.236,0,1.971,0.696,1.971,1.895
			c0,1.624-1.39,2.513-4.1,2.513c-4.096,0-5.8-1.7-5.8-5.027V116.896z"/>
		<path fill="#BF002D" d="M354.86,127.956c0,2.358,0.581,2.9,0.581,3.791c0,1.275-1.2,2.164-2.556,2.164
			c-2.435,0-3.247-1.546-3.326-3.286c-2.202,2.436-4.754,3.286-7.731,3.286c-3.211,0-6.381-2.203-6.381-5.762
			c0-4.681,3.555-5.993,7.888-6.496l3.441-0.387c1.354-0.156,2.438-0.466,2.438-2.09c0-1.623-1.667-2.319-3.559-2.319
			c-4.177,0-4.293,3.095-6.538,3.095c-1.429,0-2.396-1.005-2.396-2.167c0-2.242,3.171-5.104,8.971-5.104
			c5.417,0,9.168,1.74,9.168,5.8V127.956z M349.215,123.894c-0.619,0.581-1.78,0.775-2.438,0.891l-2.048,0.31
			c-2.361,0.349-3.636,1.084-3.636,2.784c0,1.276,1.199,2.321,3.129,2.321c3.097,0,4.993-2.012,4.993-4.099V123.894z"/>
		<path fill="#BF002D" d="M381.675,127.956c0,2.358,0.575,2.9,0.575,3.791c0,1.275-1.197,2.164-2.548,2.164
			c-2.437,0-3.249-1.546-3.33-3.286c-2.2,2.436-4.755,3.286-7.732,3.286c-3.21,0-6.38-2.203-6.38-5.762
			c0-4.681,3.557-5.993,7.89-6.496l3.441-0.387c1.353-0.156,2.437-0.466,2.437-2.09c0-1.623-1.665-2.319-3.555-2.319
			c-4.181,0-4.297,3.095-6.539,3.095c-1.432,0-2.4-1.005-2.4-2.167c0-2.242,3.175-5.104,8.972-5.104c5.416,0,9.17,1.74,9.17,5.8
			V127.956z M376.027,123.894c-0.619,0.581-1.78,0.775-2.437,0.891l-2.05,0.31c-2.359,0.349-3.637,1.084-3.637,2.784
			c0,1.276,1.2,2.321,3.133,2.321c3.097,0,4.99-2.012,4.99-4.099V123.894z"/>
		<path fill="#BF002D" d="M384.1,107.885c0-1.855,1.122-2.823,2.826-2.823c1.699,0,2.821,0.968,2.821,2.823v23.203
			c0,1.855-1.122,2.822-2.821,2.822c-1.704,0-2.826-0.967-2.826-2.822V107.885z"/>
		<path fill="#BF002D" d="M409.577,104.909c7.271,0,11.252,4.563,11.252,7.269c0,1.779-0.965,2.862-2.86,2.862
			c-3.672,0-2.591-5.026-8.392-5.026c-3.983,0-7.271,3.442-7.271,9.474c0,5.065,2.013,9.474,7.503,9.474
			c4.987,0,4.871-5.336,7.926-5.336c1.548,0,3.094,0.889,3.094,2.436c0,4.022-4.871,8.006-11.02,8.006
			c-8.7,0-13.845-4.987-13.845-14.579C395.965,111.636,400.606,104.909,409.577,104.909z"/>
		<path fill="#BF002D" d="M432.483,112.681c6.807,0,10.442,4.639,10.442,10.596c0,5.646-2.749,10.634-10.442,10.634
			s-10.442-4.988-10.442-10.634C422.041,117.32,425.674,112.681,432.483,112.681z M432.483,129.733c3.364,0,4.793-3.015,4.793-6.456
			c0-3.674-1.506-6.42-4.793-6.42s-4.797,2.746-4.797,6.42C427.687,126.718,429.119,129.733,432.483,129.733z"/>
		<path fill="#BF002D" d="M445.682,107.885c0-1.855,1.123-2.823,2.826-2.823c1.701,0,2.819,0.968,2.819,2.823v23.203
			c0,1.855-1.118,2.822-2.819,2.822c-1.703,0-2.826-0.967-2.826-2.822V107.885z"/>
		<path fill="#BF002D" d="M459.736,124.359c0,2.978,1.933,5.145,5.219,5.145c4.256,0,4.256-2.785,6.536-2.785
			c1.355,0,2.319,1.16,2.319,2.204c0,3.404-5.452,4.988-8.855,4.988c-7.89,0-10.864-5.336-10.864-10.247
			c0-6.573,3.981-10.982,10.672-10.982c6.5,0,10.209,4.602,10.209,9.241c0,1.933-0.58,2.437-2.474,2.437H459.736z M469.636,121.11
			c-0.31-2.59-2.244-4.484-4.758-4.484c-2.822,0-4.525,1.74-5.142,4.484H469.636z"/>
	</g>
</g>
<g>
</g>
<g>
</g>
<g>
</g>
<g>
</g>
<g>
</g>
<g>
</g>
</svg>
