<?xml version="1.0" encoding="utf-8"?>
<!-- Generator: Adobe Illustrator 16.0.0, SVG Export Plug-In . SVG Version: 6.00 Build 0)  -->
<!DOCTYPE svg PUBLIC "-//W3C//DTD SVG 1.1//EN" "http://www.w3.org/Graphics/SVG/1.1/DTD/svg11.dtd">
<svg version="1.1" id="Capa_1" xmlns="http://www.w3.org/2000/svg" xmlns:xlink="http://www.w3.org/1999/xlink" x="0px" y="0px"
	 width="375px" height="323px" viewBox="0 0 375 323" enable-background="new 0 0 375 323" xml:space="preserve">
<path fill="#DFA32A" stroke="#DFA32A" stroke-width="21" stroke-miterlimit="10" d="M132.406,14.279l-9.15,0.18
	c-43.811,0-109.304,37.305-111.651,137.379c-1.63,65.921,23.519,104.025,44.465,123.861c24.933,23.63,59.972,36.648,93.734,34.822
	c54.556-2.945,120.372-38.447,135.945-109.42c5.214-23.765,7.717-42.204,9.924-58.472c4.512-33.273,7-51.594,29.473-84.599
	l30.854-43.752H132.406L132.406,14.279z"/>
<path fill="#FFFFFF" d="M132.406,14.279l-9.15,0.18c-43.811,0-109.304,37.305-111.651,137.379
	c-1.63,65.921,23.519,104.025,44.465,123.861c24.933,23.63,59.972,36.648,93.734,34.822c54.556-2.945,120.372-38.447,135.945-109.42
	c5.214-23.765,7.717-42.204,9.924-58.472c4.512-33.273,7-51.594,29.473-84.599l30.854-43.752H132.406L132.406,14.279z"/>
</svg>
