<?xml version="1.0" encoding="utf-8"?>
<!-- Generator: Adobe Illustrator 16.0.0, SVG Export Plug-In . SVG Version: 6.00 Build 0)  -->
<!DOCTYPE svg PUBLIC "-//W3C//DTD SVG 1.1//EN" "http://www.w3.org/Graphics/SVG/1.1/DTD/svg11.dtd">
<svg version="1.1" id="Capa_1" xmlns="http://www.w3.org/2000/svg" xmlns:xlink="http://www.w3.org/1999/xlink" x="0px" y="0px"
	 width="428px" height="388px" viewBox="0 0 428 388" enable-background="new 0 0 428 388" xml:space="preserve">
<path fill="#DC992A" stroke="#DC992A" stroke-width="21" stroke-miterlimit="10" d="M277.408,372.629l10.572-0.238
	c50.624,0,124.708-49.265,129.013-181.241c2.589-79.427-26.407-116.786-54.645-137.803c-33.233-24.735-78.644-40.105-120.933-41.556
	c-63.112-2.161-123.2,20.733-141.196,114.365c-6.025,31.355-8.916,55.682-11.468,77.144c-5.214,43.898-8.086,68.065-34.057,111.609
	l-35.649,57.721H277.408z"/>
<path fill="#FFFFFF" d="M277.408,372.629l10.572-0.238c50.624,0,124.708-49.265,129.013-181.241
	c2.589-79.427-26.407-116.786-54.645-137.803c-33.233-24.735-78.644-40.105-120.933-41.556
	c-63.112-2.161-123.2,20.733-141.196,114.365c-6.025,31.355-8.916,55.682-11.468,77.144c-5.214,43.898-8.086,68.065-34.057,111.609
	l-35.649,57.721H277.408z"/>
<g>
</g>
<g>
</g>
<g>
</g>
<g>
</g>
<g>
</g>
<g>
</g>
</svg>
