<?xml version="1.0" encoding="utf-8"?>
<!-- Generator: Adobe Illustrator 16.0.0, SVG Export Plug-In . SVG Version: 6.00 Build 0)  -->
<!DOCTYPE svg PUBLIC "-//W3C//DTD SVG 1.1//EN" "http://www.w3.org/Graphics/SVG/1.1/DTD/svg11.dtd">
<svg version="1.1" id="Capa_1" xmlns="http://www.w3.org/2000/svg" xmlns:xlink="http://www.w3.org/1999/xlink" x="0px" y="0px"
	 width="364px" height="314px" viewBox="0 0 364 314" enable-background="new 0 0 364 314" xml:space="preserve">
<path fill="#681478" stroke="#681478" stroke-width="21" stroke-miterlimit="10" d="M236.838,303.162l8.829-0.174
	c42.278,0,105.476-35.998,107.739-132.567c1.576-63.611-22.692-100.382-42.906-119.523c-24.06-22.802-57.87-35.365-90.451-33.603
	c-52.645,2.841-116.156,37.1-131.185,105.586c-5.033,22.933-7.447,40.729-9.577,56.425c-4.354,32.106-6.752,49.786-28.439,81.636
	l-29.772,42.22H236.838z"/>
<path fill="#FFFFFF" d="M236.838,303.162l8.829-0.174c42.278,0,105.476-35.998,107.739-132.567
	c1.576-63.611-22.692-100.382-42.906-119.523c-24.06-22.802-57.87-35.365-90.451-33.603c-52.645,2.841-116.156,37.1-131.185,105.586
	c-5.033,22.933-7.447,40.729-9.577,56.425c-4.354,32.106-6.752,49.786-28.439,81.636l-29.772,42.22H236.838z"/>
<g>
</g>
<g>
</g>
<g>
</g>
<g>
</g>
<g>
</g>
<g>
</g>
</svg>
