<?xml version="1.0" encoding="utf-8"?>
<!-- Generator: Adobe Illustrator 16.0.0, SVG Export Plug-In . SVG Version: 6.00 Build 0)  -->
<!DOCTYPE svg PUBLIC "-//W3C//DTD SVG 1.1//EN" "http://www.w3.org/Graphics/SVG/1.1/DTD/svg11.dtd">
<svg version="1.1" id="Capa_1" xmlns="http://www.w3.org/2000/svg" xmlns:xlink="http://www.w3.org/1999/xlink" x="0px" y="0px"
	 width="375px" height="323px" viewBox="0 0 375 323" enable-background="new 0 0 375 323" xml:space="preserve">
<path fill="#9F74A7" stroke="#9F74A7" stroke-width="21" stroke-miterlimit="10" d="M132.268,17.822L123.167,18
	C79.588,18,14.445,55.107,12.11,154.646c-1.622,65.568,23.393,103.47,44.228,123.2c24.8,23.505,59.652,36.453,93.234,34.638
	c54.265-2.93,119.73-38.242,135.22-108.836c5.186-23.639,7.678-41.979,9.87-58.161c4.489-33.095,6.961-51.318,29.318-84.147
	l30.687-43.519H132.268z"/>
<path fill="#FFFFFF" d="M132.268,17.822L123.167,18C79.588,18,14.445,55.107,12.11,154.646
	c-1.622,65.568,23.393,103.47,44.228,123.2c24.8,23.505,59.652,36.453,93.234,34.638c54.265-2.93,119.73-38.242,135.22-108.836
	c5.186-23.639,7.678-41.979,9.87-58.161c4.489-33.095,6.961-51.318,29.318-84.147l30.687-43.519H132.268z"/>
<g>
</g>
<g>
</g>
<g>
</g>
<g>
</g>
<g>
</g>
<g>
</g>
</svg>
