<?xml version="1.0" encoding="utf-8"?>
<!-- Generator: Adobe Illustrator 16.0.0, SVG Export Plug-In . SVG Version: 6.00 Build 0)  -->
<!DOCTYPE svg PUBLIC "-//W3C//DTD SVG 1.1//EN" "http://www.w3.org/Graphics/SVG/1.1/DTD/svg11.dtd">
<svg version="1.1" id="Capa_1" xmlns="http://www.w3.org/2000/svg" xmlns:xlink="http://www.w3.org/1999/xlink" x="0px" y="0px"
	 width="415px" height="358px" viewBox="0 0 415 358" enable-background="new 0 0 415 358" xml:space="preserve">
<path fill="#ACC34F" d="M257.185,354.223c-2.537,0-5.097-0.069-7.61-0.205c-64.822-3.497-143.056-45.838-161.641-130.536
	c-5.93-27.027-8.753-47.838-11.243-66.198c-4.981-36.736-7.482-55.187-31.168-89.991L-0.586,1.909l270.382,0.002l10.128,0.199
	c30.504,0.033,63.036,14.179,87.045,37.855c21.104,20.811,46.586,59.555,48.144,125.956c1.92,77.644-27.75,122.424-52.979,146.314
	C333.981,338.917,295.728,354.223,257.185,354.223z"/>
<path fill="#FFFFFF" d="M269.59,12.409l10.227,0.201c48.972,0,122.175,41.698,124.799,153.557
	c1.822,73.683-26.289,116.273-49.701,138.444c-27.869,26.415-67.033,40.965-104.772,38.923
	c-60.978-3.29-134.545-42.973-151.952-122.302c-5.829-26.565-8.628-47.176-11.094-65.359c-5.042-37.19-7.821-57.669-32.942-94.56
	L19.667,12.409H269.59z"/>
</svg>
