<?xml version="1.0" encoding="utf-8"?>
<!-- Generator: Adobe Illustrator 16.0.0, SVG Export Plug-In . SVG Version: 6.00 Build 0)  -->
<!DOCTYPE svg PUBLIC "-//W3C//DTD SVG 1.1//EN" "http://www.w3.org/Graphics/SVG/1.1/DTD/svg11.dtd">
<svg version="1.1" id="Capa_1" xmlns="http://www.w3.org/2000/svg" xmlns:xlink="http://www.w3.org/1999/xlink" x="0px" y="0px"
	 width="481px" height="426px" viewBox="0 0 481 426" enable-background="new 0 0 481 426" xml:space="preserve">
<path fill="#9F74A7" stroke="#9F74A7" stroke-width="21" stroke-miterlimit="10" d="M313.046,411.062l11.978-0.264
	c57.368,0,141.319-54.478,146.196-200.42c2.935-87.832-29.923-129.143-61.923-152.385c-37.657-27.353-89.114-44.349-137.034-45.953
	c-71.519-2.392-139.611,22.925-160.003,126.465c-6.827,34.672-10.103,61.573-12.995,85.306
	c-5.908,48.541-9.162,75.268-38.591,123.419l-40.397,63.83L313.046,411.062L313.046,411.062z"/>
<path fill="#FFFFFF" d="M313.046,411.062l11.978-0.264c57.368,0,141.319-54.478,146.196-200.42
	c2.935-87.832-29.923-129.143-61.923-152.385c-37.657-27.353-89.114-44.349-137.034-45.953
	c-71.519-2.392-139.611,22.925-160.003,126.465c-6.827,34.672-10.103,61.573-12.995,85.306
	c-5.908,48.541-9.162,75.268-38.591,123.419l-40.397,63.83L313.046,411.062L313.046,411.062z"/>
<g>
</g>
<g>
</g>
<g>
</g>
<g>
</g>
<g>
</g>
<g>
</g>
</svg>
