<?xml version="1.0" encoding="utf-8"?>
<!-- Generator: Adobe Illustrator 16.0.0, SVG Export Plug-In . SVG Version: 6.00 Build 0)  -->
<!DOCTYPE svg PUBLIC "-//W3C//DTD SVG 1.1//EN" "http://www.w3.org/Graphics/SVG/1.1/DTD/svg11.dtd">
<svg version="1.1" id="Capa_1" xmlns="http://www.w3.org/2000/svg" xmlns:xlink="http://www.w3.org/1999/xlink" x="0px" y="0px"
	 width="364px" height="314px" viewBox="0 0 364 314" enable-background="new 0 0 364 314" xml:space="preserve">
<path fill="#DC992A" stroke="#DC992A" stroke-width="21" stroke-miterlimit="10" d="M128.195,11.029l-8.835,0.173
	c-42.305,0-105.546,36.021-107.813,132.655c-1.573,63.652,22.71,100.447,42.936,119.601c24.076,22.817,57.91,35.388,90.51,33.625
	c52.681-2.843,116.231-37.125,131.271-105.657c5.034-22.949,7.451-40.753,9.582-56.461c4.357-32.129,6.759-49.82,28.46-81.691
	l29.792-42.246H128.195V11.029z"/>
<path fill="#FFFFFF" d="M128.195,11.029l-8.835,0.173c-42.305,0-105.546,36.021-107.813,132.655
	c-1.573,63.652,22.71,100.447,42.936,119.601c24.076,22.817,57.91,35.388,90.51,33.625c52.681-2.843,116.231-37.125,131.271-105.657
	c5.034-22.949,7.451-40.753,9.582-56.461c4.357-32.129,6.759-49.82,28.46-81.691l29.792-42.246H128.195V11.029z"/>
<g>
</g>
<g>
</g>
<g>
</g>
<g>
</g>
<g>
</g>
<g>
</g>
</svg>
