<?xml version="1.0" encoding="utf-8"?>
<!-- Generator: Adobe Illustrator 16.0.0, SVG Export Plug-In . SVG Version: 6.00 Build 0)  -->
<!DOCTYPE svg PUBLIC "-//W3C//DTD SVG 1.1//EN" "http://www.w3.org/Graphics/SVG/1.1/DTD/svg11.dtd">
<svg version="1.1" id="Capa_1" xmlns="http://www.w3.org/2000/svg" xmlns:xlink="http://www.w3.org/1999/xlink" x="0px" y="0px"
	 width="450px" height="355px" viewBox="0 0 450 355" enable-background="new 0 0 450 355" xml:space="preserve">
<path fill="#681478" stroke="#681478" stroke-width="21" stroke-miterlimit="10" d="M157.921,15.001l-11.093,0.2
	c-53.117,0-132.518,41.343-135.365,152.25c-1.975,73.056,28.515,115.287,53.909,137.27c30.228,26.188,72.709,40.616,113.642,38.594
	c66.141-3.266,145.935-42.609,164.817-121.268c6.322-26.338,9.356-46.773,12.033-64.803c5.471-36.874,8.483-57.179,35.733-93.757
	L429,15L157.921,15.001L157.921,15.001z"/>
<path fill="#FFFFFF" d="M157.921,15.001l-11.093,0.2c-53.117,0-132.518,41.343-135.365,152.25
	c-1.975,73.056,28.515,115.287,53.909,137.27c30.228,26.188,72.709,40.616,113.642,38.594
	c66.141-3.266,145.935-42.609,164.817-121.268c6.322-26.338,9.356-46.773,12.033-64.803c5.471-36.874,8.483-57.179,35.733-93.757
	L429,15L157.921,15.001L157.921,15.001z"/>
</svg>
